<svg width="24" height="27" viewBox="0 0 24 27" fill="none" xmlns="http://www.w3.org/2000/svg">
<path d="M0.601502 16.6426C-0.187933 15.8701 -0.20232 14.604 0.570252 13.8145C1.34275 13.0252 2.60893 13.0119 3.39838 13.7842L10.081 20.3243L10.081 2.00006C10.081 0.895496 10.9764 6.43701e-05 12.081 6.43218e-05C13.1855 0.000117679 14.081 0.895528 14.081 2.00006L14.081 20.1651L20.6015 13.7842C21.391 13.0119 22.6571 13.0252 23.4296 13.8145C24.2022 14.604 24.1878 15.8701 23.3984 16.6426L13.3984 26.4298C12.6211 27.1901 11.3788 27.1901 10.6015 26.4298L0.601502 16.6426Z" fill="#505D65"/>
</svg>
