<svg width="76" height="64" viewBox="0 0 76 64" fill="none" xmlns="http://www.w3.org/2000/svg">
<mask id="path-1-outside-1_52_783" maskUnits="userSpaceOnUse" x="0" y="0" width="76" height="64" fill="black">
<rect fill="white" width="76" height="64"/>
<path d="M71.5167 39.0722V34.3568C71.5167 25.4436 68.063 17.0625 61.7912 10.7573C57.1442 6.08753 51.3147 2.93646 44.9331 1.64443C44.1507 1.48579 43.3885 1.99511 43.2308 2.78175C43.0733 3.56825 43.5798 4.33426 44.3623 4.49275C50.1842 5.67148 55.5044 8.54828 59.7472 12.8118C65.4728 18.568 68.626 26.2196 68.626 34.3569V38.4826H67.6914C67.3212 37.4901 66.6239 36.6232 65.7354 36.0517V34.3569C65.7354 26.9892 62.8445 20.2876 58.1431 15.3375C53.0933 9.88491 45.6926 6.79326 38.3123 6.79326C30.9039 6.79326 23.5662 9.89682 18.481 15.3378C13.7797 20.2879 10.8888 26.9894 10.8888 34.3569V35.7103C9.6918 36.2487 8.76117 37.2491 8.30604 38.4826H7.99819V34.3569C7.99819 26.2183 11.1514 18.5667 16.877 12.812C21.1696 8.49729 26.5568 5.60683 32.4564 4.45324C33.2399 4.29998 33.7516 3.53745 33.5991 2.74979C33.4468 1.96228 32.6883 1.44831 31.9043 1.60128C25.4374 2.86586 19.5342 6.03204 14.8329 10.7574C8.56128 17.061 5.10743 25.4421 5.10743 34.3568V38.8168C2.72021 39.6448 1 41.9244 1 44.6017V53.1338C1 56.508 3.73106 59.2532 7.08822 59.2532H8.14171C8.67084 61.4019 10.6047 63 12.9037 63H16.8189C19.5241 63 21.7249 60.7878 21.7249 58.0689V40.2083C21.7249 37.4893 19.524 35.2772 16.8189 35.2772H13.7794V34.3568C13.7794 28.2968 15.9669 22.7417 19.5881 18.4437L20.1193 18.978C22.1507 21.0164 25.5096 21.2927 27.8443 19.6133C30.913 17.4038 34.5328 16.2359 38.3123 16.2359C42.0916 16.2359 45.7114 17.4038 48.7806 19.6136C51.1353 21.3074 54.4561 21.0342 56.5064 18.9767L57.0363 18.4437C60.6575 22.7417 62.845 28.2968 62.845 34.3568V35.2772H59.1812C56.4761 35.2772 54.2753 37.4894 54.2753 40.2083V58.0688C54.2753 60.7878 56.4762 62.9999 59.1812 62.9999H63.0964C65.3953 62.9999 67.3293 61.4019 67.8584 59.253H68.9118C72.2688 59.253 75 56.508 75 53.1336V44.6016C74.9999 42.164 73.5739 40.0552 71.5167 39.0722ZM3.89062 53.1339V44.6019C3.89062 42.8297 5.32509 41.3879 7.08822 41.3879H7.99761V56.3479H7.08822C5.32509 56.3478 3.89062 54.9059 3.89062 53.1339ZM18.8343 40.2083V58.0688C18.8343 59.1858 17.9302 60.0944 16.8189 60.0944H12.9036C11.6032 60.0944 10.8888 58.9946 10.8888 57.8003V40.208C10.8888 39.1066 11.8064 38.1824 12.9036 38.1824H16.8188C17.9301 38.1827 18.8343 39.0913 18.8343 40.2083ZM50.4633 17.2512C46.9007 14.6861 42.6989 13.3303 38.3121 13.3303C33.9252 13.3303 29.7235 14.6861 26.1614 17.2507C24.9421 18.1279 23.2225 17.9864 22.1628 16.9231L21.5825 16.3393C26.0971 12.1012 32.1323 9.69853 38.3121 9.69853C44.4911 9.69853 50.5266 12.1007 55.0417 16.3393L54.4626 16.9218C53.4017 17.9865 51.6822 18.1277 50.4633 17.2512ZM63.0963 60.0946H59.1811C58.0698 60.0946 57.1657 59.1859 57.1657 58.0689V40.2083C57.1657 39.0913 58.0698 38.1827 59.1811 38.1827H63.0963C64.1928 38.1827 65.1111 39.1064 65.1111 40.2083V57.8006C65.1111 58.9946 64.3966 60.0946 63.0963 60.0946ZM72.1092 53.1339C72.1092 54.9061 70.6748 56.3479 68.9116 56.3479H68.0023V41.3879H68.9116C70.6748 41.3879 72.1092 42.8297 72.1092 44.6019V53.1339Z"/>
<path d="M25.4604 49.502C25.8923 50.1652 26.8124 50.337 27.4636 49.903C28.1217 49.4642 28.2971 48.5477 27.8625 47.8895C27.4275 47.2304 26.5133 47.0478 25.8593 47.4871C25.2043 47.9271 25.0239 48.8438 25.4604 49.502Z"/>
<path d="M33.6552 54.0783V43.3123C33.6552 42.51 33.0081 41.8596 32.2099 41.8596C31.4116 41.8596 30.7646 42.51 30.7646 43.3123V54.0783C30.7646 54.8807 31.4116 55.531 32.2099 55.531C33.0081 55.531 33.6552 54.8807 33.6552 54.0783Z"/>
<path d="M39.1634 58.5198V38.8709C39.1634 38.0686 38.5163 37.4182 37.7181 37.4182C36.9199 37.4182 36.2728 38.0686 36.2728 38.8709V58.5198C36.2728 59.3222 36.9199 59.9726 37.7181 59.9726C38.5163 59.9726 39.1634 59.3222 39.1634 58.5198Z"/>
<path d="M44.6716 51.1187V46.1309C44.6716 45.3285 44.0246 44.6782 43.2263 44.6782C42.4281 44.6782 41.781 45.3285 41.781 46.1309V51.1187C41.781 51.9211 42.4281 52.5714 43.2263 52.5714C44.0246 52.5714 44.6716 51.9211 44.6716 51.1187Z"/>
<path d="M47.5505 49.502C47.9906 50.1601 48.898 50.341 49.5552 49.903C50.2122 49.465 50.3884 48.547 49.9541 47.8895C49.5189 47.2306 48.6047 47.0475 47.9509 47.4871C47.2963 47.927 47.1132 48.8431 47.5505 49.502Z"/>
<path d="M39.5132 1.62801C38.7964 0.547049 37.0832 0.938845 36.8844 2.21316C36.6782 3.53469 38.2995 4.40995 39.2828 3.51101C39.8095 3.02944 39.9007 2.22289 39.5132 1.62801Z"/>
</mask>
<path d="M71.5167 39.0722V34.3568C71.5167 25.4436 68.063 17.0625 61.7912 10.7573C57.1442 6.08753 51.3147 2.93646 44.9331 1.64443C44.1507 1.48579 43.3885 1.99511 43.2308 2.78175C43.0733 3.56825 43.5798 4.33426 44.3623 4.49275C50.1842 5.67148 55.5044 8.54828 59.7472 12.8118C65.4728 18.568 68.626 26.2196 68.626 34.3569V38.4826H67.6914C67.3212 37.4901 66.6239 36.6232 65.7354 36.0517V34.3569C65.7354 26.9892 62.8445 20.2876 58.1431 15.3375C53.0933 9.88491 45.6926 6.79326 38.3123 6.79326C30.9039 6.79326 23.5662 9.89682 18.481 15.3378C13.7797 20.2879 10.8888 26.9894 10.8888 34.3569V35.7103C9.6918 36.2487 8.76117 37.2491 8.30604 38.4826H7.99819V34.3569C7.99819 26.2183 11.1514 18.5667 16.877 12.812C21.1696 8.49729 26.5568 5.60683 32.4564 4.45324C33.2399 4.29998 33.7516 3.53745 33.5991 2.74979C33.4468 1.96228 32.6883 1.44831 31.9043 1.60128C25.4374 2.86586 19.5342 6.03204 14.8329 10.7574C8.56128 17.061 5.10743 25.4421 5.10743 34.3568V38.8168C2.72021 39.6448 1 41.9244 1 44.6017V53.1338C1 56.508 3.73106 59.2532 7.08822 59.2532H8.14171C8.67084 61.4019 10.6047 63 12.9037 63H16.8189C19.5241 63 21.7249 60.7878 21.7249 58.0689V40.2083C21.7249 37.4893 19.524 35.2772 16.8189 35.2772H13.7794V34.3568C13.7794 28.2968 15.9669 22.7417 19.5881 18.4437L20.1193 18.978C22.1507 21.0164 25.5096 21.2927 27.8443 19.6133C30.913 17.4038 34.5328 16.2359 38.3123 16.2359C42.0916 16.2359 45.7114 17.4038 48.7806 19.6136C51.1353 21.3074 54.4561 21.0342 56.5064 18.9767L57.0363 18.4437C60.6575 22.7417 62.845 28.2968 62.845 34.3568V35.2772H59.1812C56.4761 35.2772 54.2753 37.4894 54.2753 40.2083V58.0688C54.2753 60.7878 56.4762 62.9999 59.1812 62.9999H63.0964C65.3953 62.9999 67.3293 61.4019 67.8584 59.253H68.9118C72.2688 59.253 75 56.508 75 53.1336V44.6016C74.9999 42.164 73.5739 40.0552 71.5167 39.0722ZM3.89062 53.1339V44.6019C3.89062 42.8297 5.32509 41.3879 7.08822 41.3879H7.99761V56.3479H7.08822C5.32509 56.3478 3.89062 54.9059 3.89062 53.1339ZM18.8343 40.2083V58.0688C18.8343 59.1858 17.9302 60.0944 16.8189 60.0944H12.9036C11.6032 60.0944 10.8888 58.9946 10.8888 57.8003V40.208C10.8888 39.1066 11.8064 38.1824 12.9036 38.1824H16.8188C17.9301 38.1827 18.8343 39.0913 18.8343 40.2083ZM50.4633 17.2512C46.9007 14.6861 42.6989 13.3303 38.3121 13.3303C33.9252 13.3303 29.7235 14.6861 26.1614 17.2507C24.9421 18.1279 23.2225 17.9864 22.1628 16.9231L21.5825 16.3393C26.0971 12.1012 32.1323 9.69853 38.3121 9.69853C44.4911 9.69853 50.5266 12.1007 55.0417 16.3393L54.4626 16.9218C53.4017 17.9865 51.6822 18.1277 50.4633 17.2512ZM63.0963 60.0946H59.1811C58.0698 60.0946 57.1657 59.1859 57.1657 58.0689V40.2083C57.1657 39.0913 58.0698 38.1827 59.1811 38.1827H63.0963C64.1928 38.1827 65.1111 39.1064 65.1111 40.2083V57.8006C65.1111 58.9946 64.3966 60.0946 63.0963 60.0946ZM72.1092 53.1339C72.1092 54.9061 70.6748 56.3479 68.9116 56.3479H68.0023V41.3879H68.9116C70.6748 41.3879 72.1092 42.8297 72.1092 44.6019V53.1339Z" fill="#0596AE"/>
<path d="M25.4604 49.502C25.8923 50.1652 26.8124 50.337 27.4636 49.903C28.1217 49.4642 28.2971 48.5477 27.8625 47.8895C27.4275 47.2304 26.5133 47.0478 25.8593 47.4871C25.2043 47.9271 25.0239 48.8438 25.4604 49.502Z" fill="#0596AE"/>
<path d="M33.6552 54.0783V43.3123C33.6552 42.51 33.0081 41.8596 32.2099 41.8596C31.4116 41.8596 30.7646 42.51 30.7646 43.3123V54.0783C30.7646 54.8807 31.4116 55.531 32.2099 55.531C33.0081 55.531 33.6552 54.8807 33.6552 54.0783Z" fill="#0596AE"/>
<path d="M39.1634 58.5198V38.8709C39.1634 38.0686 38.5163 37.4182 37.7181 37.4182C36.9199 37.4182 36.2728 38.0686 36.2728 38.8709V58.5198C36.2728 59.3222 36.9199 59.9726 37.7181 59.9726C38.5163 59.9726 39.1634 59.3222 39.1634 58.5198Z" fill="#0596AE"/>
<path d="M44.6716 51.1187V46.1309C44.6716 45.3285 44.0246 44.6782 43.2263 44.6782C42.4281 44.6782 41.781 45.3285 41.781 46.1309V51.1187C41.781 51.9211 42.4281 52.5714 43.2263 52.5714C44.0246 52.5714 44.6716 51.9211 44.6716 51.1187Z" fill="#0596AE"/>
<path d="M47.5505 49.502C47.9906 50.1601 48.898 50.341 49.5552 49.903C50.2122 49.465 50.3884 48.547 49.9541 47.8895C49.5189 47.2306 48.6047 47.0475 47.9509 47.4871C47.2963 47.927 47.1132 48.8431 47.5505 49.502Z" fill="#0596AE"/>
<path d="M39.5132 1.62801C38.7964 0.547049 37.0832 0.938845 36.8844 2.21316C36.6782 3.53469 38.2995 4.40995 39.2828 3.51101C39.8095 3.02944 39.9007 2.22289 39.5132 1.62801Z" fill="#0596AE"/>
<path d="M71.5167 39.0722V34.3568C71.5167 25.4436 68.063 17.0625 61.7912 10.7573C57.1442 6.08753 51.3147 2.93646 44.9331 1.64443C44.1507 1.48579 43.3885 1.99511 43.2308 2.78175C43.0733 3.56825 43.5798 4.33426 44.3623 4.49275C50.1842 5.67148 55.5044 8.54828 59.7472 12.8118C65.4728 18.568 68.626 26.2196 68.626 34.3569V38.4826H67.6914C67.3212 37.4901 66.6239 36.6232 65.7354 36.0517V34.3569C65.7354 26.9892 62.8445 20.2876 58.1431 15.3375C53.0933 9.88491 45.6926 6.79326 38.3123 6.79326C30.9039 6.79326 23.5662 9.89682 18.481 15.3378C13.7797 20.2879 10.8888 26.9894 10.8888 34.3569V35.7103C9.6918 36.2487 8.76117 37.2491 8.30604 38.4826H7.99819V34.3569C7.99819 26.2183 11.1514 18.5667 16.877 12.812C21.1696 8.49729 26.5568 5.60683 32.4564 4.45324C33.2399 4.29998 33.7516 3.53745 33.5991 2.74979C33.4468 1.96228 32.6883 1.44831 31.9043 1.60128C25.4374 2.86586 19.5342 6.03204 14.8329 10.7574C8.56128 17.061 5.10743 25.4421 5.10743 34.3568V38.8168C2.72021 39.6448 1 41.9244 1 44.6017V53.1338C1 56.508 3.73106 59.2532 7.08822 59.2532H8.14171C8.67084 61.4019 10.6047 63 12.9037 63H16.8189C19.5241 63 21.7249 60.7878 21.7249 58.0689V40.2083C21.7249 37.4893 19.524 35.2772 16.8189 35.2772H13.7794V34.3568C13.7794 28.2968 15.9669 22.7417 19.5881 18.4437L20.1193 18.978C22.1507 21.0164 25.5096 21.2927 27.8443 19.6133C30.913 17.4038 34.5328 16.2359 38.3123 16.2359C42.0916 16.2359 45.7114 17.4038 48.7806 19.6136C51.1353 21.3074 54.4561 21.0342 56.5064 18.9767L57.0363 18.4437C60.6575 22.7417 62.845 28.2968 62.845 34.3568V35.2772H59.1812C56.4761 35.2772 54.2753 37.4894 54.2753 40.2083V58.0688C54.2753 60.7878 56.4762 62.9999 59.1812 62.9999H63.0964C65.3953 62.9999 67.3293 61.4019 67.8584 59.253H68.9118C72.2688 59.253 75 56.508 75 53.1336V44.6016C74.9999 42.164 73.5739 40.0552 71.5167 39.0722ZM3.89062 53.1339V44.6019C3.89062 42.8297 5.32509 41.3879 7.08822 41.3879H7.99761V56.3479H7.08822C5.32509 56.3478 3.89062 54.9059 3.89062 53.1339ZM18.8343 40.2083V58.0688C18.8343 59.1858 17.9302 60.0944 16.8189 60.0944H12.9036C11.6032 60.0944 10.8888 58.9946 10.8888 57.8003V40.208C10.8888 39.1066 11.8064 38.1824 12.9036 38.1824H16.8188C17.9301 38.1827 18.8343 39.0913 18.8343 40.2083ZM50.4633 17.2512C46.9007 14.6861 42.6989 13.3303 38.3121 13.3303C33.9252 13.3303 29.7235 14.6861 26.1614 17.2507C24.9421 18.1279 23.2225 17.9864 22.1628 16.9231L21.5825 16.3393C26.0971 12.1012 32.1323 9.69853 38.3121 9.69853C44.4911 9.69853 50.5266 12.1007 55.0417 16.3393L54.4626 16.9218C53.4017 17.9865 51.6822 18.1277 50.4633 17.2512ZM63.0963 60.0946H59.1811C58.0698 60.0946 57.1657 59.1859 57.1657 58.0689V40.2083C57.1657 39.0913 58.0698 38.1827 59.1811 38.1827H63.0963C64.1928 38.1827 65.1111 39.1064 65.1111 40.2083V57.8006C65.1111 58.9946 64.3966 60.0946 63.0963 60.0946ZM72.1092 53.1339C72.1092 54.9061 70.6748 56.3479 68.9116 56.3479H68.0023V41.3879H68.9116C70.6748 41.3879 72.1092 42.8297 72.1092 44.6019V53.1339Z" stroke="#0596AE" stroke-width="0.4" mask="url(#path-1-outside-1_52_783)"/>
<path d="M25.4604 49.502C25.8923 50.1652 26.8124 50.337 27.4636 49.903C28.1217 49.4642 28.2971 48.5477 27.8625 47.8895C27.4275 47.2304 26.5133 47.0478 25.8593 47.4871C25.2043 47.9271 25.0239 48.8438 25.4604 49.502Z" stroke="#0596AE" stroke-width="0.4" mask="url(#path-1-outside-1_52_783)"/>
<path d="M33.6552 54.0783V43.3123C33.6552 42.51 33.0081 41.8596 32.2099 41.8596C31.4116 41.8596 30.7646 42.51 30.7646 43.3123V54.0783C30.7646 54.8807 31.4116 55.531 32.2099 55.531C33.0081 55.531 33.6552 54.8807 33.6552 54.0783Z" stroke="#0596AE" stroke-width="0.4" mask="url(#path-1-outside-1_52_783)"/>
<path d="M39.1634 58.5198V38.8709C39.1634 38.0686 38.5163 37.4182 37.7181 37.4182C36.9199 37.4182 36.2728 38.0686 36.2728 38.8709V58.5198C36.2728 59.3222 36.9199 59.9726 37.7181 59.9726C38.5163 59.9726 39.1634 59.3222 39.1634 58.5198Z" stroke="#0596AE" stroke-width="0.4" mask="url(#path-1-outside-1_52_783)"/>
<path d="M44.6716 51.1187V46.1309C44.6716 45.3285 44.0246 44.6782 43.2263 44.6782C42.4281 44.6782 41.781 45.3285 41.781 46.1309V51.1187C41.781 51.9211 42.4281 52.5714 43.2263 52.5714C44.0246 52.5714 44.6716 51.9211 44.6716 51.1187Z" stroke="#0596AE" stroke-width="0.4" mask="url(#path-1-outside-1_52_783)"/>
<path d="M47.5505 49.502C47.9906 50.1601 48.898 50.341 49.5552 49.903C50.2122 49.465 50.3884 48.547 49.9541 47.8895C49.5189 47.2306 48.6047 47.0475 47.9509 47.4871C47.2963 47.927 47.1132 48.8431 47.5505 49.502Z" stroke="#0596AE" stroke-width="0.4" mask="url(#path-1-outside-1_52_783)"/>
<path d="M39.5132 1.62801C38.7964 0.547049 37.0832 0.938845 36.8844 2.21316C36.6782 3.53469 38.2995 4.40995 39.2828 3.51101C39.8095 3.02944 39.9007 2.22289 39.5132 1.62801Z" stroke="#0596AE" stroke-width="0.4" mask="url(#path-1-outside-1_52_783)"/>
</svg>
