<svg width="20" height="24" viewBox="0 0 20 24" fill="none" xmlns="http://www.w3.org/2000/svg">
<path d="M18.4722 9.01841L4.16603 0.869651C3.75709 0.63112 3.29138 0.503582 2.81624 0.5C2.06933 0.5 1.353 0.792522 0.824857 1.31322C0.29671 1.83391 0 2.54012 0 3.27649V20.7651C9.49914e-05 21.2538 0.132964 21.7335 0.384793 22.1544C0.636622 22.5753 0.998216 22.922 1.43198 23.1584C1.86574 23.3949 2.35583 23.5125 2.8513 23.499C3.34677 23.4854 3.82951 23.3413 4.24935 23.0816L18.5722 14.1607C19.0175 13.8859 19.3831 13.5021 19.6332 13.0466C19.8833 12.5911 20.0095 12.0795 19.9994 11.5616C19.9894 11.0438 19.8434 10.5373 19.5757 10.0916C19.3081 9.6459 18.9279 9.27616 18.4722 9.01841Z" fill="#0795AC"/>
</svg>
