<svg width="52" height="66" viewBox="0 0 52 66" fill="none" xmlns="http://www.w3.org/2000/svg">
<path d="M37.1327 36.0407C37.3543 36.2598 37.5301 36.5205 37.6501 36.8078C37.7701 37.095 37.8319 37.4031 37.8319 37.7143C37.8319 38.0255 37.7701 38.3335 37.6501 38.6208C37.5301 38.908 37.3543 39.1687 37.1327 39.3879L27.6782 48.8164C27.4584 49.0374 27.197 49.2127 26.909 49.3324C26.621 49.4521 26.312 49.5137 26 49.5137C25.688 49.5137 25.379 49.4521 25.091 49.3324C24.803 49.2127 24.5415 49.0374 24.3218 48.8164L14.8673 39.3879C14.6469 39.1681 14.4721 38.9072 14.3528 38.62C14.2335 38.3329 14.1721 38.0251 14.1721 37.7143C14.1721 37.4035 14.2335 37.0957 14.3528 36.8086C14.4721 36.5214 14.6469 36.2605 14.8673 36.0407C15.3124 35.5969 15.916 35.3475 16.5455 35.3475C16.8571 35.3475 17.1657 35.4087 17.4537 35.5277C17.7416 35.6466 18.0033 35.8209 18.2236 36.0407L23.6364 41.4621V23.5714C23.6364 22.9463 23.8854 22.3467 24.3287 21.9047C24.7719 21.4626 25.3731 21.2143 26 21.2143C26.6269 21.2143 27.2281 21.4626 27.6713 21.9047C28.1146 22.3467 28.3636 22.9463 28.3636 23.5714V41.4621L33.7764 36.0407C33.9961 35.8198 34.2575 35.6444 34.5455 35.5248C34.8336 35.4051 35.1425 35.3435 35.4545 35.3435C35.7666 35.3435 36.0755 35.4051 36.3635 35.5248C36.6516 35.6444 36.913 35.8198 37.1327 36.0407ZM52 18.1971V58.9286C52 60.804 51.2529 62.6027 49.9231 63.9288C48.5933 65.255 46.7897 66 44.9091 66H7.09091C5.21028 66 3.40668 65.255 2.07688 63.9288C0.747076 62.6027 0 60.804 0 58.9286V7.07144C0 5.19598 0.747076 3.39733 2.07688 2.07118C3.40668 0.745033 5.21028 9.32626e-06 7.09091 9.32626e-06H35.5964C36.6381 -0.00167779 37.6674 0.225554 38.6111 0.665546C39.5548 1.10554 40.3897 1.74748 41.0564 2.54572L50.3455 13.6714C51.4111 14.9404 51.9966 16.542 52 18.1971ZM37.8182 6.03429V11.7857C37.8182 12.4109 38.0672 13.0104 38.5105 13.4525C38.9537 13.8945 39.5549 14.1429 40.1818 14.1429H44.5782L37.8182 6.03429ZM47.2727 18.8571H40.1818C38.3012 18.8571 36.4976 18.1121 35.1678 16.786C33.838 15.4598 33.0909 13.6612 33.0909 11.7857V4.71429H7.09091C6.46403 4.71429 5.86283 4.96264 5.41957 5.40469C4.9763 5.84674 4.72727 6.44628 4.72727 7.07144V58.9286C4.72727 59.5537 4.9763 60.1533 5.41957 60.5953C5.86283 61.0374 6.46403 61.2857 7.09091 61.2857H44.9091C45.536 61.2857 46.1372 61.0374 46.5804 60.5953C47.0237 60.1533 47.2727 59.5537 47.2727 58.9286V18.8571Z" fill="#0596AE"/>
</svg>
