<svg width="30" height="30" viewBox="0 0 30 30" fill="none" xmlns="http://www.w3.org/2000/svg">
<path d="M14.9682 30C6.6879 30 0 23.2979 0 15C0 6.70213 6.6879 0 14.9682 0C23.2484 0 29.9363 6.70213 29.9363 15C29.9363 23.2979 23.2484 30 14.9682 30ZM14.9682 2.48936C8.08917 2.48936 2.48408 8.10638 2.48408 15C2.48408 21.8936 8.08917 27.5106 14.9682 27.5106C21.8471 27.5106 27.4522 21.8936 27.4522 15C27.4522 8.10638 21.8471 2.48936 14.9682 2.48936Z" fill="white"/>
<path d="M14.9682 30C10.5096 30 8.15287 22.2766 8.15287 15C8.15287 7.7234 10.5096 0 14.9682 0C19.4268 0 21.7834 7.7234 21.7834 15C21.7834 22.2766 19.4268 30 14.9682 30ZM14.9682 2.48936C13.1847 2.48936 10.6369 7.34043 10.6369 15C10.6369 22.6596 13.1847 27.5106 14.9682 27.5106C16.7516 27.5106 19.2994 22.6596 19.2994 15C19.2994 7.34043 16.7516 2.48936 14.9682 2.48936Z" fill="white"/>
<path d="M28.6624 16.2766H1.27389C0.573248 16.2766 0 15.7021 0 15C0 14.2979 0.573248 13.7234 1.27389 13.7234H28.7261C29.4268 13.7234 30 14.2979 30 15C29.9363 15.7021 29.3631 16.2766 28.6624 16.2766Z" fill="white"/>
</svg>
