<svg width="68" height="68" viewBox="0 0 68 68" fill="none" xmlns="http://www.w3.org/2000/svg">
<path d="M8.60547 39.0273C15.2202 37.4902 21.2499 42.5438 21.25 49.1816C21.25 52.1646 19.9914 55.0108 17.7959 56.9902C16.8184 57.872 16.2511 59.1986 16.251 60.6348C16.251 61.3855 15.7128 62.0142 15.001 62.1357V63.1816C15.001 65.4209 13.2109 67.25 11.001 67.25C8.79114 67.2499 7.00195 65.4209 7.00195 63.1816V62.1357C6.28972 62.0146 5.75195 61.3868 5.75195 60.6357C5.75189 59.9347 5.61505 59.238 5.3584 58.6211V58.6201C5.0956 57.9867 4.71846 57.4505 4.23926 57.0215C1.36641 54.4545 0.16571 50.6176 1.02051 46.7676C1.86958 42.9412 4.84487 39.9017 8.60547 39.0273ZM10.001 63.1816C10.001 63.7498 10.4541 64.204 11.001 64.2041C11.5476 64.2041 12.001 63.7498 12.001 63.1816V62.1592H10.001V63.1816ZM18.25 49.1816C18.2499 44.4723 13.9803 40.9014 9.27441 41.9961C6.67933 42.5994 4.53425 44.7872 3.94629 47.4375C3.33439 50.1928 4.18808 52.9176 6.22266 54.7354V54.7363C7.04582 55.4736 7.68503 56.3823 8.12305 57.4365C8.34378 57.968 8.50514 58.534 8.61035 59.1133H9.50098V53.6289L7.43945 51.5293H7.43848C6.85573 50.9349 6.85557 49.9732 7.43848 49.3789H7.43945C8.02564 48.7828 8.97736 48.7827 9.56348 49.3789L11 50.8428L12.4385 49.3789C13.0246 48.7827 13.9763 48.7828 14.5625 49.3789H14.5635C15.1464 49.9732 15.1462 50.9349 14.5635 51.5293H14.5625L12.501 53.6289V59.1133H13.3916C13.7062 57.4037 14.5446 55.8507 15.8047 54.7139C17.3582 53.313 18.25 51.2962 18.25 49.1816ZM24.2676 13.75C25.1146 13.7502 25.8037 14.4353 25.8037 15.2822C25.8036 16.1285 25.1146 16.8142 24.2676 16.8145H16.291C12.2561 16.8147 8.82346 20.3902 8.82324 24.6406C8.82324 28.7154 12.1349 32.4676 16.291 32.4678H48.709C54.433 32.468 59.25 37.4611 59.25 43.3594C59.2499 46.1328 58.1352 48.8972 56.1934 50.9482V50.9492C54.1798 53.0746 51.5219 54.2499 48.709 54.25H25.2959C24.4482 54.2498 23.7598 53.5641 23.7598 52.7178C23.7599 51.871 24.4483 51.1858 25.2959 51.1855H48.709C50.6618 51.1854 52.5267 50.3577 53.96 48.8447C55.3697 47.3556 56.1766 45.3542 56.1768 43.3594C56.1768 39.1083 52.7441 35.5324 48.709 35.5322H16.291C10.3646 35.532 5.75 30.3364 5.75 24.6406C5.75022 18.7426 10.5666 13.7502 16.291 13.75H24.2676ZM30.7979 1.20117C31.2312 0.771053 31.882 0.635428 32.4551 0.851562L66.2568 13.5781C67.5826 14.0798 67.571 15.9033 66.2812 16.4121L66.2695 16.417C66.266 16.4185 66.2608 16.4191 66.2559 16.4209L32.4551 29.1494C31.8841 29.3643 31.2339 29.2299 30.7988 28.7988H30.7979C30.3641 28.3681 30.2308 27.7245 30.4619 27.1602L33.6777 19.2852L28.5166 16.3135C28.0436 16.0411 27.75 15.5421 27.75 15C27.75 14.458 28.0435 13.959 28.5166 13.6865L33.6777 10.7139L30.4619 2.84082L30.4229 2.7334C30.2487 2.19608 30.3911 1.605 30.7979 1.20117ZM38.1484 13.4775H42.3008C43.1517 13.4777 43.8505 14.1541 43.8506 15C43.8506 15.8454 43.1518 16.5223 42.3008 16.5225H38.1484L34.6602 25.0566L57.3281 16.5225H52.7012C51.85 16.5225 51.1514 15.8455 51.1514 15C51.1514 14.154 51.8501 13.4775 52.7012 13.4775H57.3281L34.6602 4.94238L38.1484 13.4775ZM32.3652 15L34.8447 16.4277L35.4297 15L34.8447 13.5713L32.3652 15Z" fill="#0596AE" stroke="#0596AE" stroke-width="0.5"/>
</svg>
