<svg width="66" height="56" viewBox="0 0 66 56" fill="none" xmlns="http://www.w3.org/2000/svg">
<path d="M31.9591 52.09H8.72617C6.11275 52.09 3.98658 50.0047 3.98658 47.4414V18.7181H61.9913V27.0008C61.9913 28.0804 62.8838 28.9558 63.9846 28.9558C65.0853 28.9558 65.9779 28.0804 65.9779 27.0008V8.53685C65.9779 3.82964 62.071 0 57.2716 0H8.70403C3.90463 0 0 3.82964 0 8.53685V47.4414C0 52.1595 3.9157 56 8.72617 56H31.9591C33.0598 56 33.9523 55.1246 33.9523 54.045C33.9523 52.9654 33.0598 52.09 31.9591 52.09ZM8.70403 3.91001H57.2738C59.8762 3.91001 61.9913 5.98666 61.9913 8.53685V14.8081H3.98658V8.53685C3.98658 5.98448 6.10168 3.91001 8.70403 3.91001Z" fill="#0596AE"/>
<path d="M11.5079 11.2196C12.5644 11.2196 13.4215 10.3789 13.4215 9.34275C13.4215 8.30659 12.5644 7.46377 11.5079 7.46377C10.4515 7.46377 9.59436 8.30442 9.59436 9.34058C9.59436 10.3767 10.4493 11.2196 11.5079 11.2196Z" fill="#0596AE"/>
<path d="M18.2519 11.2196C19.3083 11.2196 20.1654 10.3789 20.1654 9.34275C20.1654 8.30659 19.3083 7.46377 18.2519 7.46377C17.1954 7.46377 16.3383 8.30442 16.3383 9.34058C16.3383 10.3767 17.1932 11.2196 18.2519 11.2196Z" fill="#0596AE"/>
<path d="M24.9958 11.2196C26.0523 11.2196 26.9094 10.3789 26.9094 9.34275C26.9094 8.30659 26.0523 7.46594 24.9958 7.46594C23.9394 7.46594 23.0823 8.30659 23.0823 9.34275C23.0823 10.3789 23.9372 11.2196 24.9958 11.2196Z" fill="#0596AE"/>
<path d="M64.6202 35.1531L51.3316 27.5808C49.9009 26.764 48.1202 26.764 46.6872 27.5808L33.3987 35.1531C32.546 35.6376 32.0189 36.539 32.0189 37.5035C32.0189 38.468 32.546 39.3694 33.3987 39.856L36.9246 41.8653V47.878C36.9246 49.4681 37.7994 50.9517 39.2058 51.7468L44.7515 54.8813C46.0649 55.6242 47.5377 55.9957 49.0105 55.9957C50.4811 55.9957 51.954 55.6242 53.2673 54.8813L58.8175 51.7446C60.2217 50.9496 61.0943 49.4681 61.0943 47.878V41.8653L64.6202 39.856C65.4729 39.3716 66 38.4701 66 37.5057C66 36.5412 65.4729 35.6397 64.6202 35.1531ZM48.6916 30.9629C48.8909 30.85 49.1323 30.85 49.3272 30.9629L60.813 37.5057L49.3272 44.0484C49.1323 44.1614 48.8909 44.1592 48.6916 44.0484L37.208 37.5057L48.6916 30.9629ZM57.1077 47.878C57.1077 48.0757 56.9992 48.2604 56.8264 48.3581L51.2785 51.4926C49.8721 52.2833 48.1401 52.2812 46.7426 51.4926L41.1968 48.3581C41.0219 48.2582 40.9134 48.0757 40.9134 47.878V44.1396L46.6872 47.4306C47.4048 47.8389 48.2088 48.0431 49.0105 48.0431C49.8123 48.0431 50.6162 47.8389 51.3316 47.4306L57.1055 44.1396L57.1077 47.878Z" fill="#0596AE"/>
</svg>
