<svg width="71" height="71" viewBox="0 0 71 71" fill="none" xmlns="http://www.w3.org/2000/svg">
<path d="M6.20508 51.8164H64.7959V12.6416H6.20508V51.8164ZM16.1367 19.5869H29.0459C30.6903 19.5871 32.0225 20.9191 32.0225 22.5605V38.6748C32.0224 40.3162 30.6903 41.6473 29.0459 41.6475H16.1367C14.4921 41.6475 13.1592 40.3163 13.1592 38.6748V22.5605C13.1592 20.919 14.4921 19.5869 16.1367 19.5869ZM40.3408 38.9248H56.4775C57.2308 38.9249 57.8408 39.5347 57.8408 40.2861C57.8408 41.0376 57.231 41.6474 56.4775 41.6475H40.3408C39.5874 41.6473 38.9775 41.0376 38.9775 40.2861C38.9776 39.5347 39.5875 38.9249 40.3408 38.9248ZM15.8867 38.9248H29.2959V22.3105H15.8867V38.9248ZM40.3408 32.4795H46.7959C47.5491 32.4797 48.1592 33.0894 48.1592 33.8408C48.159 34.5921 47.5491 35.2019 46.7959 35.2021H40.3408C39.5875 35.202 38.9777 34.5921 38.9775 33.8408C38.9775 33.0894 39.5874 32.4796 40.3408 32.4795ZM40.3408 26.0332H56.4775C57.2308 26.0333 57.8407 26.6432 57.8408 27.3945C57.8408 28.146 57.231 28.7558 56.4775 28.7559H40.3408C39.5874 28.7557 38.9775 28.146 38.9775 27.3945C38.9777 26.6432 39.5875 26.0333 40.3408 26.0332ZM40.3408 19.5879H50.0225C50.7758 19.5879 51.3867 20.1976 51.3867 20.9492C51.3865 21.7006 50.7758 22.3105 50.0225 22.3105H40.3408C39.5875 22.3104 38.9776 21.7005 38.9775 20.9492C38.9775 20.1978 39.5874 19.588 40.3408 19.5879ZM2.97754 9.91895H68.0225V6.19531H2.97754V9.91895ZM3.47754 12.6416H3.22754C1.58298 12.6416 0.250071 11.3104 0.25 9.66895V6.44629C0.25 4.80475 1.58294 3.47266 3.22754 3.47266H32.5225V3.22266C32.5226 1.58129 33.8556 0.250074 35.5 0.25C37.1445 0.25 38.4774 1.58123 38.4775 3.22266V3.47266H67.7725C69.4169 3.47266 70.7498 4.80396 70.75 6.44531V9.66895C70.7499 11.3104 69.417 12.6416 67.7725 12.6416H67.5225V51.5664C67.5225 53.2079 66.1895 54.5391 64.5449 54.5391H36.8633V59.0664L36.9365 59.1396L46.1348 68.3252L46.1416 68.332L46.1494 68.3389C46.2023 68.3841 46.2521 68.434 46.2979 68.4873C46.7567 69.0226 46.7267 69.8112 46.25 70.3105L46.1484 70.4062C45.5764 70.8954 44.7154 70.829 44.2256 70.2578L44.2197 70.25L44.2129 70.2432L35.6768 61.7188L35.5 61.543L35.3232 61.7188L26.7715 70.2598L26.7637 70.2666L26.7578 70.2744C26.7125 70.3273 26.6629 70.3771 26.6094 70.4229C26.0375 70.912 25.1764 70.8452 24.6865 70.2744C24.1968 69.7034 24.2631 68.8436 24.835 68.3545L24.8428 68.3486L24.8496 68.3418L34.0635 59.1396L34.1367 59.0664V54.5391H6.45508C4.81048 54.5391 3.47754 53.2079 3.47754 51.5664V12.6416Z" fill="#0596AE" stroke="#0596AE" stroke-width="0.5"/>
</svg>
