<svg width="56" height="56" viewBox="0 0 56 56" fill="none" xmlns="http://www.w3.org/2000/svg">
<path d="M50.2475 42.6394C49.94 42.3313 49.5226 42.1582 49.0875 42.1582H47.2136V20.6818C52.1863 19.8915 56 15.5693 56 10.3716C55.4757 -3.45932 35.6678 -3.45515 35.1458 10.3718C35.1458 15.5693 38.9595 19.8915 43.9323 20.6817V42.1581H29.6406V38.276C34.6134 37.4857 38.427 33.1635 38.427 27.9659C37.9027 14.135 18.095 14.1391 17.5728 27.966C17.5728 33.1635 21.3865 37.4857 26.3594 38.276V42.1581H12.0678V20.6818C17.0405 19.8915 20.8542 15.5694 20.8542 10.3718C20.3299 -3.45921 0.522156 -3.45515 0 10.3719C0 15.5694 3.81369 19.8916 8.78653 20.6818V42.1582H1.64062C0.734562 42.1582 0 42.8937 0 43.8008V54.3574C0 55.2645 0.734562 56 1.64062 56H49.0875C49.5227 56 49.94 55.8269 50.2475 55.5188L55.5194 50.2405C55.8271 49.9325 56 49.5147 56 49.0791C56 48.6434 55.8272 48.2257 55.5194 47.9177L50.2475 42.6394ZM38.427 10.3716C38.427 6.42663 41.6327 3.21716 45.573 3.21716C55.0398 3.5769 55.0373 17.1679 45.5728 17.5262C41.6327 17.5261 38.427 14.3167 38.427 10.3716ZM20.8542 27.966C20.8542 24.0209 24.0599 20.8115 28 20.8115C37.4668 21.1712 37.4642 34.7622 27.9999 35.1206C24.0598 35.1204 20.8542 31.911 20.8542 27.966ZM3.28125 10.3716C3.28125 6.42663 6.48692 3.21716 10.427 3.21716C19.8939 3.57679 19.8914 17.1679 10.4269 17.5262C6.48692 17.5261 3.28125 14.3167 3.28125 10.3716ZM13.2622 52.7148H3.28125V45.4434H13.262L16.8933 49.0791L13.2622 52.7148ZM30.8351 52.7148H17.9025L20.3736 50.2405C21.0143 49.599 21.0143 48.559 20.3736 47.9175L17.9025 45.4434H30.8351L34.4662 49.0791L30.8351 52.7148ZM48.408 52.7148H35.4755L37.9466 50.2405C38.5873 49.599 38.5873 48.559 37.9466 47.9175L35.4755 45.4434H48.408L52.0392 49.0791L48.408 52.7148Z" fill="#0596AE"/>
<path d="M14.2231 9.77374C15.7035 8.17755 13.4962 5.96877 11.903 7.45074L9.54844 9.80801L8.95125 9.21021C7.3582 7.72824 5.15058 9.93712 6.63108 11.5332L8.3883 13.2926C9.02891 13.9341 10.0679 13.9341 10.7085 13.2926L14.2231 9.77374Z" fill="#0596AE"/>
<path d="M31.796 27.3681C33.2765 25.7719 31.0691 23.5632 29.4758 25.0451L27.1214 27.4024L26.5242 26.8045C24.9312 25.3225 22.7235 27.5314 24.204 29.1275L25.9614 30.887C26.5722 31.5232 27.6707 31.5233 28.2815 30.887L31.796 27.3681Z" fill="#0596AE"/>
<path d="M49.3689 9.77374C50.8494 8.17755 48.6419 5.96877 47.0488 7.45074L44.6943 9.80812L44.097 9.21021C42.5039 7.72856 40.2964 9.93701 41.7769 11.5333L43.5342 13.2927C44.1749 13.9341 45.2138 13.9342 45.8544 13.2927L49.3689 9.77374Z" fill="#0596AE"/>
</svg>
