<svg width="58" height="62" viewBox="0 0 58 62" fill="none" xmlns="http://www.w3.org/2000/svg">
<path d="M12.1747 6.0212C12.4693 6.31148 12.8553 6.45591 13.2399 6.45591C13.6259 6.45591 14.0105 6.31077 14.305 6.0212C14.8933 5.44136 14.8933 4.50221 14.305 3.92237L10.7665 0.434879C10.1781 -0.14496 9.22524 -0.14496 8.63691 0.434879C8.04858 1.01472 8.04858 1.95388 8.63691 2.53371L12.1747 6.0212Z" fill="#0596AE"/>
<path d="M44.758 6.45661C45.144 6.45661 45.53 6.31148 45.8245 6.02191L49.3631 2.53442C49.9514 1.95458 49.9514 1.01542 49.3631 0.435584C48.7748 -0.144255 47.8219 -0.144255 47.2335 0.435584L43.6935 3.92307C43.1052 4.50291 43.1052 5.44207 43.6935 6.02191C43.9874 6.31148 44.3741 6.45661 44.758 6.45661Z" fill="#0596AE"/>
<path d="M28.5636 12.2909C29.9168 12.2656 31.1821 12.9328 31.8998 14.0565C32.1865 14.506 32.6762 14.7505 33.1758 14.7505C33.4518 14.7505 33.7277 14.6779 33.9779 14.5222C34.682 14.0854 34.8936 13.1681 34.4504 12.4762C33.1665 10.4662 30.8554 9.24801 28.4807 9.32269C27.6493 9.34454 26.993 10.0279 27.0152 10.8473C27.0395 11.6653 27.7365 12.2473 28.5636 12.2909Z" fill="#0596AE"/>
<path d="M55.4194 15.026C51.4762 14.3898 47.4358 14.3616 43.3869 14.8724C42.9179 11.7851 41.5018 8.93731 39.1864 6.71588C36.3377 3.98296 32.5789 2.52737 28.6008 2.64151C21.5372 2.8261 15.6833 8.14752 14.6167 14.8682C10.5213 14.3362 6.28432 14.387 2.53989 15.0316C1.04441 15.3127 0 16.5541 0 18.0513V57.9552C0 58.5534 0.298096 59.11 0.802071 59.4453C1.11446 59.6539 1.76355 59.768 2.141 59.7187L3.64149 59.4996C11.2883 58.4118 18.883 58.9902 26.2231 61.2306L28.5586 61.9359C28.7015 61.9782 28.851 62 28.9996 62C29.1598 62 29.9433 61.7696 29.9433 61.7696C37.7681 59.1001 46.182 58.3188 54.2863 59.4989C54.2863 59.4989 55.2206 59.5559 55.5223 59.6292C56.1006 59.7708 56.7011 59.7779 57.1979 59.4446C57.6118 59.1691 58 58.4477 58 57.9545V18.0506C57.9993 16.5534 56.9549 15.312 55.4194 15.026ZM28.6815 5.60975C28.788 5.60623 28.8946 5.60623 29.0018 5.60623C32.0414 5.60623 34.9015 6.74829 37.084 8.84361C39.3458 11.0129 40.5911 13.9205 40.5911 17.0304C40.5911 20.2128 39.2285 23.2748 36.8502 25.4314C35.5077 26.6509 34.7685 28.2517 34.7685 29.9412C34.7685 31.792 33.2402 33.2976 31.363 33.2976H30.5044V25.4927C30.5044 24.6733 29.8296 24.0082 28.9982 24.0082C28.1668 24.0082 27.492 24.6733 27.492 25.4927V33.2969H26.6335C24.7555 33.2969 23.2279 31.7906 23.2279 29.9405C23.2279 28.2495 22.4887 26.6488 21.1462 25.4307C18.7429 23.2501 17.3796 20.1543 17.4054 16.9353C17.4561 10.8516 22.5137 5.77109 28.6815 5.60975ZM29.0032 40.4713C27.0173 40.4713 25.4025 38.8783 25.4025 36.9204V36.1433C25.8014 36.22 26.2117 36.2658 26.6327 36.2658H31.363C31.7769 36.2658 32.1815 36.2193 32.5732 36.1454V36.9204C32.5732 38.8783 30.9712 40.4713 29.0032 40.4713ZM3.20399 56.5609L3.01456 56.5919L3.08247 17.9534C6.56168 17.3566 10.6099 17.3164 14.4845 17.8427C14.7018 21.5578 16.3123 25.0847 19.106 27.6176C19.8216 28.2643 20.2148 29.0915 20.2148 29.9412C20.2148 31.8202 21.0661 33.4906 22.3886 34.6503V36.9211C22.3886 40.0027 24.5754 42.5757 27.4934 43.2535V58.509L27.1088 58.3934C19.3426 56.0191 11.3026 55.4041 3.20399 56.5609ZM54.9869 56.5969L54.7181 56.5609C46.6652 55.3808 38.3364 56.1142 30.5058 58.5358V43.2528C33.4117 42.5757 35.5871 40.0027 35.5871 36.9204V34.6665C36.9224 33.5069 37.781 31.8286 37.781 29.9405C37.781 29.0901 38.1763 28.2636 38.8918 27.6148C41.6798 25.0861 43.2997 21.5564 43.517 17.8456C47.3608 17.3383 51.2003 17.3629 54.9869 18.0506V56.5969Z" fill="#0596AE"/>
<path d="M9.09228 30.7204H13.9362C14.7675 30.7204 15.4424 30.0553 15.4424 29.2359C15.4424 28.4165 14.7675 27.7514 13.9362 27.7514H9.09228C8.2609 27.7514 7.58607 28.4165 7.58607 29.2359C7.58607 30.0546 8.2609 30.7204 9.09228 30.7204Z" fill="#0596AE"/>
<path d="M9.09228 40.038H17.7006C18.5334 40.038 19.2068 39.3729 19.2068 38.5535C19.2068 37.7341 18.5334 37.069 17.7006 37.069H9.09228C8.25947 37.069 7.58393 37.7341 7.58393 38.5535C7.58393 39.3729 8.25947 40.038 9.09228 40.038Z" fill="#0596AE"/>
<path d="M20.1518 45.787H9.09228C8.25947 45.787 7.58393 46.4521 7.58393 47.2715C7.58393 48.0909 8.25875 48.756 9.09228 48.756H20.1518C20.9832 48.756 21.6581 48.0909 21.6581 47.2715C21.6581 46.4521 20.9832 45.787 20.1518 45.787Z" fill="#0596AE"/>
<path d="M42.5591 29.8355C42.5591 30.6549 43.2339 31.32 44.0674 31.32H48.9099C49.7412 31.32 50.4161 30.6549 50.4161 29.8355C50.4161 29.0161 49.7412 28.351 48.9099 28.351H44.0674C43.2339 28.351 42.5591 29.0161 42.5591 29.8355Z" fill="#0596AE"/>
<path d="M48.907 37.069H40.2987C39.4659 37.069 38.7925 37.7341 38.7925 38.5535C38.7925 39.3729 39.4659 40.038 40.2987 40.038H48.907C49.7398 40.038 50.4154 39.3729 50.4154 38.5535C50.4154 37.7341 49.7398 37.069 48.907 37.069Z" fill="#0596AE"/>
<path d="M47.8297 45.7779H37.8439C37.0125 45.7779 36.3377 46.443 36.3377 47.2624C36.3377 48.0817 37.0125 48.7468 37.8439 48.7468H47.8297C48.6611 48.7468 49.3359 48.0817 49.3359 47.2624C49.3359 46.443 48.6604 45.7779 47.8297 45.7779Z" fill="#0596AE"/>
</svg>
