<svg width="62" height="62" viewBox="0 0 62 62" fill="none" xmlns="http://www.w3.org/2000/svg">
<path d="M55.8 20.6667V14.4667C55.8 12.8223 55.1468 11.2453 53.9841 10.0826C52.8213 8.91988 51.2443 8.26667 49.6 8.26667V6.2C49.6 4.55566 48.9468 2.97866 47.7841 1.81594C46.6213 0.653212 45.0443 0 43.4 0H18.6C16.9557 0 15.3787 0.653212 14.2159 1.81594C13.0532 2.97866 12.4 4.55566 12.4 6.2V8.26667C10.7557 8.26667 9.17866 8.91988 8.01594 10.0826C6.85321 11.2453 6.2 12.8223 6.2 14.4667V20.6667C4.55566 20.6667 2.97866 21.3199 1.81594 22.4826C0.653212 23.6453 0 25.2223 0 26.8667V55.8C0 57.4443 0.653212 59.0213 1.81594 60.1841C2.97866 61.3468 4.55566 62 6.2 62H55.8C57.4443 62 59.0213 61.3468 60.1841 60.1841C61.3468 59.0213 62 57.4443 62 55.8V26.8667C62 25.2223 61.3468 23.6453 60.1841 22.4826C59.0213 21.3199 57.4443 20.6667 55.8 20.6667ZM16.5333 6.2C16.5333 5.65189 16.7511 5.12622 17.1386 4.73865C17.5262 4.35107 18.0519 4.13333 18.6 4.13333H43.4C43.9481 4.13333 44.4738 4.35107 44.8614 4.73865C45.2489 5.12622 45.4667 5.65189 45.4667 6.2V8.26667H16.5333V6.2ZM10.3333 14.4667C10.3333 13.9186 10.5511 13.3929 10.9386 13.0053C11.3262 12.6177 11.8519 12.4 12.4 12.4H49.6C50.1481 12.4 50.6738 12.6177 51.0614 13.0053C51.4489 13.3929 51.6667 13.9186 51.6667 14.4667V20.6667H10.3333V14.4667ZM57.8667 55.8C57.8667 56.3481 57.6489 56.8738 57.2614 57.2614C56.8738 57.6489 56.3481 57.8667 55.8 57.8667H6.2C5.65189 57.8667 5.12622 57.6489 4.73865 57.2614C4.35107 56.8738 4.13333 56.3481 4.13333 55.8V26.8667C4.13333 26.3186 4.35107 25.7929 4.73865 25.4053C5.12622 25.0177 5.65189 24.8 6.2 24.8H55.8C56.3481 24.8 56.8738 25.0177 57.2614 25.4053C57.6489 25.7929 57.8667 26.3186 57.8667 26.8667V55.8Z" fill="#0596AE"/>
<path d="M41.3333 37.6133L29.45 30.1733C28.7834 29.7613 28.019 29.5346 27.2356 29.5168C26.4521 29.499 25.6781 29.6906 24.9935 30.0718C24.3089 30.4531 23.7385 31.0102 23.3411 31.6857C22.9438 32.3611 22.734 33.1304 22.7333 33.914V48.7527C22.7307 49.5363 22.9384 50.3063 23.3346 50.9824C23.7308 51.6585 24.3011 52.2159 24.986 52.5967C25.6717 52.9791 26.4472 53.1712 27.2321 53.153C28.017 53.1348 28.7827 52.9071 29.45 52.4933L41.3333 45.0533C41.9655 44.66 42.487 44.112 42.8486 43.4611C43.2102 42.8102 43.4 42.0779 43.4 41.3333C43.4 40.5887 43.2102 39.8564 42.8486 39.2056C42.487 38.5547 41.9655 38.0067 41.3333 37.6133ZM39.1427 41.5607L27.2593 48.98C27.2192 49.0009 27.1744 49.0114 27.1292 49.0104C27.0839 49.0094 27.0397 48.997 27.0005 48.9743C26.9613 48.9516 26.9285 48.9194 26.9051 48.8807C26.8817 48.8419 26.8685 48.7979 26.8667 48.7527V33.914C26.8617 33.868 26.871 33.8216 26.8931 33.7809C26.9153 33.7403 26.9493 33.7074 26.9907 33.6867C27.0376 33.6709 27.0884 33.6709 27.1353 33.6867H27.2593L39.1427 41.106C39.1811 41.1302 39.2128 41.1637 39.2347 41.2035C39.2566 41.2433 39.2681 41.2879 39.2681 41.3333C39.2681 41.3787 39.2566 41.4234 39.2347 41.4632C39.2128 41.5029 39.1811 41.5365 39.1427 41.5607Z" fill="#0596AE"/>
</svg>
