<svg width="79" height="70" viewBox="0 0 79 70" fill="none" xmlns="http://www.w3.org/2000/svg">
<path d="M21.0898 47.9846C22.1243 45.9779 23.3256 43.8441 24.6671 41.6836C23.2989 43.6769 22.0976 45.7839 21.0898 47.9846Z" fill="url(#paint0_linear_2002_966)"/>
<path d="M78.5257 6.01178V5.39639C78.4456 4.76094 78.2521 4.14556 77.9451 3.58368C74.0141 -3.51999 53.5719 0.265958 32.2353 12.0318C10.8987 23.7977 -3.25676 39.0151 0.647492 46.092C2.89661 50.2058 10.7518 50.6405 21.1165 47.985C24.6804 40.2526 30.46 33.7576 37.7212 29.3295C44.869 25.1422 53.3716 24.1857 61.2335 21.5569C66.8063 19.6907 73.6671 16.4399 76.8172 11.7844C77.8784 10.0452 78.4657 8.05191 78.5257 6.01178Z" fill="url(#paint1_linear_2002_966)"/>
<path d="M78.5315 6.01172C78.4781 8.05854 77.8908 10.0585 76.823 11.811C73.6729 16.4933 66.812 19.7174 61.2393 21.5836C53.3707 24.1856 44.8681 25.1422 37.7203 29.3294C32.528 32.4532 28.0765 36.6672 24.6728 41.684C23.338 43.8445 22.13 45.9582 21.0955 47.985C16.1635 57.6304 14.8354 65.4833 18.3659 68.607C24.4058 73.9582 42.352 63.4365 58.4563 45.1355C71.9109 29.8445 79.8129 13.9582 78.5315 6.01172Z" fill="url(#paint2_linear_2002_966)"/>
<defs>
<linearGradient id="paint0_linear_2002_966" x1="21.0898" y1="44.8274" x2="24.6737" y2="44.8274" gradientUnits="userSpaceOnUse">
<stop stop-color="white"/>
<stop offset="1"/>
</linearGradient>
<linearGradient id="paint1_linear_2002_966" x1="0.000120032" y1="24.8211" x2="78.5257" y2="24.8211" gradientUnits="userSpaceOnUse">
<stop stop-color="#03659C"/>
<stop offset="1" stop-color="#06B2B8"/>
</linearGradient>
<linearGradient id="paint2_linear_2002_966" x1="17.9855" y1="62.0452" x2="78.4147" y2="14.6788" gradientUnits="userSpaceOnUse">
<stop stop-color="#06B2B8"/>
<stop offset="0.2" stop-color="#06ABB5"/>
<stop offset="0.49" stop-color="#0596AE"/>
<stop offset="0.85" stop-color="#0476A2"/>
<stop offset="1" stop-color="#03659C"/>
</linearGradient>
</defs>
</svg>
