<svg width="87" height="86" viewBox="0 0 87 86" fill="none" xmlns="http://www.w3.org/2000/svg">
<path d="M84.5405 25.308L84.6933 24.7377C84.7787 24.1259 84.7431 23.4972 84.5985 22.8943C82.6998 15.3328 62.6298 13.7165 39.6899 19.3243C16.7501 24.9321 -0.373501 35.6091 1.48807 43.1919C2.5688 47.5956 9.81948 49.9772 20.1876 50.0988C25.4775 43.7739 32.5285 39.1669 40.4557 36.8557C48.2031 34.747 56.3884 35.9842 64.4437 35.5096C70.1264 35.1594 77.377 33.8501 81.4922 30.2979C82.9271 28.9271 83.9759 27.2098 84.5405 25.308Z" fill="url(#paint0_linear_2005_302)"/>
<path d="M84.5362 25.3534L84.5479 25.3096C83.9834 27.2114 82.9345 28.9286 81.4997 30.2995C77.3772 33.8497 70.1266 35.159 64.4438 35.5092C56.4252 35.9936 48.1666 34.7368 40.4559 36.8553C34.8112 38.4695 29.59 41.2864 25.1411 45.1174C23.3333 46.7959 21.6858 48.4624 20.2122 50.0658C13.1773 57.8352 9.97461 64.8369 12.4979 68.6319C16.8231 75.1352 36.2749 69.8309 55.9534 56.7667C72.3754 45.9253 83.762 33.0764 84.5362 25.3534Z" fill="url(#paint1_linear_2005_302)"/>
<defs>
<linearGradient id="paint0_linear_2005_302" x1="6.2084" y1="23.1732" x2="79.8269" y2="42.8992" gradientUnits="userSpaceOnUse">
<stop stop-color="#03659C"/>
<stop offset="1" stop-color="#06B2B8"/>
</linearGradient>
<linearGradient id="paint1_linear_2005_302" x1="13.7656" y1="62.436" x2="82.1408" y2="33.1225" gradientUnits="userSpaceOnUse">
<stop stop-color="#06B2B8"/>
<stop offset="0.2" stop-color="#06ABB5"/>
<stop offset="0.49" stop-color="#0596AE"/>
<stop offset="0.85" stop-color="#0476A2"/>
<stop offset="1" stop-color="#03659C"/>
</linearGradient>
</defs>
</svg>
