<svg width="129" height="57" viewBox="0 0 129 57" fill="none" xmlns="http://www.w3.org/2000/svg">
<path d="M17.1106 39.075C17.9499 37.441 18.9245 35.7035 20.0129 33.9442C18.9029 35.5673 17.9282 37.283 17.1106 39.075Z" fill="url(#paint0_linear_0_53)"/>
<path d="M63.7096 4.89726V4.39616C63.6446 3.87872 63.4875 3.37762 63.2385 2.9201C60.0492 -2.86433 43.464 0.218519 26.1531 9.79931C8.84231 19.3801 -2.64228 31.7714 0.525324 37.534C2.35008 40.8838 8.72319 41.2378 17.1322 39.0755C20.0237 32.7791 24.7128 27.4903 30.604 23.8845C36.4032 20.4749 43.3015 19.696 49.68 17.5555C54.2013 16.0358 59.7676 13.3887 62.3234 9.59778C63.1843 8.18163 63.6608 6.55851 63.7096 4.89726Z" fill="url(#paint1_linear_0_53)"/>
<path d="M63.7149 4.89746C63.6715 6.56416 63.195 8.19273 62.3287 9.61977C59.7729 13.4325 54.2066 16.0578 49.6853 17.5774C43.3014 19.6962 36.4031 20.4751 30.6039 23.8848C26.3913 26.4284 22.7797 29.8598 20.0182 33.9449C18.9352 35.7041 17.9552 37.4253 17.1159 39.0757C13.1144 46.9299 12.0369 53.3243 14.9013 55.8679C19.8016 60.2253 34.3617 51.6576 47.4274 36.7554C58.3435 24.3042 64.7545 11.3682 63.7149 4.89746Z" fill="url(#paint2_linear_0_53)"/>
<path d="M38.0218 40.7478V29.1191C37.9947 28.8195 38.2113 28.5526 38.5091 28.5254C38.5416 28.5254 38.5741 28.5254 38.6066 28.5254H45.6024C45.8731 28.5254 46.0951 28.7487 46.0951 29.021C46.0951 29.2934 45.8731 29.5167 45.6024 29.5167H39.1048V34.2281H45.467C45.7378 34.2281 45.9598 34.4514 45.9598 34.7238C45.9598 34.9961 45.7378 35.2194 45.467 35.2194H39.0993V40.7478C39.0993 41.0474 38.8557 41.2925 38.5579 41.2925C38.2601 41.2925 38.0218 41.0474 38.0218 40.7478Z" fill="white"/>
<path d="M49.7125 40.7479V29.0211C49.7125 28.7215 49.9562 28.4764 50.254 28.4764C50.5518 28.4764 50.7955 28.7215 50.7955 29.0211V40.7479C50.7955 41.0474 50.5518 41.2925 50.254 41.2925C49.9562 41.2925 49.7125 41.0474 49.7125 40.7479Z" fill="white"/>
<path d="M63.8337 40.4265C63.8987 40.53 63.9312 40.6498 63.9258 40.7696C63.9258 41.0583 63.7038 41.298 63.4168 41.3143C63.2327 41.3143 63.054 41.2326 62.9403 41.0855L59.4153 35.9929H56.4426V40.7587C56.4426 41.0583 56.199 41.3034 55.9012 41.3034C55.6034 41.3034 55.3597 41.0583 55.3597 40.7587V29.1191C55.3326 28.8195 55.5492 28.5526 55.847 28.5254C55.8795 28.5254 55.9174 28.5254 55.9499 28.5254H60.0867C62.2526 28.5254 63.9312 29.9198 63.9312 32.2455C64.0287 34.1573 62.5667 35.7913 60.6607 35.8894C60.6499 35.8894 60.639 35.8894 60.6282 35.8894L63.8337 40.4265ZM56.4426 34.9798H59.9839C61.4783 34.9798 62.6912 33.7597 62.6912 32.2564C62.6912 30.7531 61.4783 29.533 59.9839 29.533H56.4426V34.9798Z" fill="white"/>
<path d="M68.0413 40.6553V29.1191C68.0143 28.8195 68.2309 28.5526 68.5287 28.5254C68.5612 28.5254 68.5936 28.5254 68.6261 28.5254H75.6219C75.8927 28.5254 76.1147 28.7487 76.1147 29.021C76.1147 29.2934 75.8927 29.5167 75.6219 29.5167H69.1243V34.2281H75.492C75.7627 34.2281 75.9847 34.4514 75.9847 34.7238C75.9847 34.9961 75.7627 35.2194 75.492 35.2194H69.1189V40.2522H75.6165C75.8873 40.2522 76.1093 40.4755 76.1093 40.7478C76.1093 41.0202 75.8873 41.2435 75.6165 41.2435H68.6261C68.3283 41.2707 68.0684 41.0474 68.0413 40.7478C68.0413 40.7152 68.0413 40.6879 68.0413 40.6553Z" fill="white"/>
<path d="M80.1488 40.7478V29.1191C80.1217 28.8195 80.3383 28.5526 80.6361 28.5254C80.6686 28.5254 80.7011 28.5254 80.7336 28.5254H87.7294C88.0001 28.5254 88.2221 28.7487 88.2221 29.021C88.2221 29.2934 88.0001 29.5167 87.7294 29.5167H81.2317V34.2281H87.5994C87.8701 34.2281 88.0921 34.4514 88.0921 34.7238C88.0921 34.9961 87.8701 35.2194 87.5994 35.2194H81.2317V40.7478C81.2317 41.0474 80.988 41.2925 80.6902 41.2925C80.3924 41.2925 80.1488 41.0474 80.1488 40.7478Z" fill="white"/>
<path d="M91.8393 40.6553V29.0211C91.8393 28.7215 92.083 28.4764 92.3808 28.4764C92.6786 28.4764 92.9222 28.7215 92.9222 29.0211V40.2522H98.6077C98.8784 40.2522 99.1004 40.4755 99.1004 40.7479C99.1004 41.0202 98.8784 41.2435 98.6077 41.2435H92.4295C92.1317 41.2707 91.8664 41.0529 91.8393 40.7533C91.8393 40.7206 91.8393 40.6879 91.8393 40.6553Z" fill="white"/>
<path d="M102.814 40.7479V29.0211C102.814 28.7215 103.058 28.4764 103.356 28.4764C103.654 28.4764 103.897 28.7215 103.897 29.0211V40.7479C103.897 41.0474 103.654 41.2925 103.356 41.2925C103.058 41.2925 102.814 41.0474 102.814 40.7479Z" fill="white"/>
<path d="M108.462 40.6553V29.1191C108.435 28.8195 108.651 28.5526 108.949 28.5254C108.982 28.5254 109.014 28.5254 109.047 28.5254H116.042C116.313 28.5254 116.535 28.7487 116.535 29.021C116.535 29.2934 116.313 29.5167 116.042 29.5167H109.545V34.2281H115.912C116.183 34.2281 116.405 34.4514 116.405 34.7238C116.405 34.9961 116.183 35.2194 115.912 35.2194H109.539V40.2522H116.037C116.308 40.2522 116.53 40.4755 116.53 40.7478C116.53 41.0202 116.308 41.2435 116.037 41.2435H109.047C108.749 41.2707 108.489 41.0474 108.462 40.7478C108.462 40.7152 108.462 40.6879 108.462 40.6553Z" fill="white"/>
<path d="M120.023 39.3966C120.023 39.097 120.266 38.8519 120.564 38.8519C120.699 38.8519 120.835 38.9009 120.943 38.9881C121.891 39.9413 123.179 40.4805 124.522 40.4805C127.116 40.4805 127.858 39.0317 127.858 37.9478C127.858 36.1503 126.168 35.6601 124.387 35.1808C122.394 34.6362 120.272 34.0534 120.272 31.7113C120.272 29.6306 122.129 28.3179 124.484 28.3179C125.925 28.2744 127.327 28.7973 128.388 29.7831C128.518 29.8757 128.594 30.0282 128.594 30.1862C128.594 30.4857 128.35 30.7308 128.053 30.7308C127.923 30.7417 127.798 30.6927 127.712 30.5947C126.834 29.7395 125.649 29.282 124.43 29.3201C122.687 29.3201 121.414 30.2897 121.414 31.6622C121.414 33.171 122.99 33.6067 124.717 34.0642C126.764 34.6579 129 35.3061 129 37.877C129 39.511 127.917 41.4772 124.506 41.4772C122.903 41.5154 121.349 40.9108 120.191 39.7942C120.077 39.6962 120.012 39.5491 120.023 39.3966Z" fill="white"/>
<path d="M54.6727 49.6205V46.4178H53.5897C53.5139 46.4178 53.4489 46.3525 53.4489 46.2762C53.4489 46.2 53.5139 46.1346 53.5897 46.1346H56.0209C56.0967 46.1346 56.1617 46.2 56.1617 46.2762C56.1617 46.3525 56.0967 46.4178 56.0209 46.4178H54.938V49.6205C54.938 49.7077 54.8676 49.7785 54.781 49.7785C54.6943 49.7785 54.6239 49.7077 54.6239 49.6205H54.6727Z" fill="white"/>
<path d="M59.5453 49.5278C59.5561 49.5605 59.5561 49.5932 59.5453 49.6259C59.5453 49.7076 59.4803 49.7729 59.3991 49.7784C59.3449 49.7784 59.2962 49.7566 59.2637 49.713L58.2566 48.2642H57.4336V49.6204C57.4336 49.7076 57.3686 49.7729 57.2819 49.7784C57.1953 49.7784 57.1303 49.7076 57.1249 49.6204V46.2925C57.1141 46.2108 57.1736 46.1345 57.2603 46.1236C57.2711 46.1236 57.2819 46.1236 57.2928 46.1236H58.4623C59.0255 46.091 59.5128 46.5212 59.5453 47.0877C59.5453 47.1313 59.5453 47.1694 59.5453 47.213C59.5724 47.7577 59.1554 48.2261 58.6085 48.2533H58.5977L59.5453 49.5278ZM57.4336 47.981H58.4623C58.8901 48.0191 59.2691 47.6977 59.3016 47.262C59.3395 46.8317 59.0201 46.4504 58.5869 46.4178C58.5436 46.4178 58.5002 46.4178 58.4569 46.4178H57.4281V47.981H57.4336Z" fill="white"/>
<path d="M63.5526 49.6144C63.5526 49.707 63.4822 49.7778 63.3902 49.7778C63.3252 49.7778 63.2657 49.7342 63.2386 49.6743L62.9191 48.8682H60.9861L60.6666 49.6743C60.6395 49.7342 60.58 49.7778 60.515 49.7778C60.4229 49.7778 60.3525 49.707 60.3525 49.6144C60.3525 49.6144 60.3525 49.5708 60.3525 49.549L61.7116 46.2919C61.7549 46.1884 61.8524 46.123 61.9607 46.123C62.069 46.123 62.1719 46.1884 62.2152 46.2919L63.5472 49.5599C63.5472 49.5599 63.5526 49.5981 63.5526 49.6144ZM62.7946 48.5904L61.939 46.4117L61.0889 48.5904H62.7946Z" fill="white"/>
<path d="M65.2036 49.6038L63.8716 46.3358C63.8716 46.3358 63.8716 46.2922 63.8716 46.2704C63.8716 46.1778 63.9474 46.1016 64.0394 46.1016C64.1098 46.1016 64.1694 46.1451 64.1965 46.2051L65.4689 49.3968L66.7468 46.2051C66.7739 46.1397 66.8334 46.1016 66.9038 46.1016C66.9959 46.1016 67.0663 46.1724 67.0663 46.265C67.0663 46.265 67.0663 46.314 67.0663 46.3358L65.7342 49.6038C65.6801 49.7454 65.5231 49.8108 65.3823 49.7563C65.3119 49.7291 65.2577 49.6746 65.2307 49.6038H65.2036Z" fill="white"/>
<path d="M67.9651 49.5926V46.2919C67.9543 46.2102 68.0139 46.1339 68.1005 46.123C68.1113 46.123 68.1222 46.123 68.133 46.123H70.131C70.2068 46.123 70.2718 46.1884 70.2718 46.2647C70.2718 46.3409 70.2068 46.4063 70.131 46.4063H68.2738V47.7625H70.0931C70.1689 47.7625 70.2339 47.8279 70.2339 47.9041C70.2339 47.9804 70.1689 48.0457 70.0931 48.0457H68.2738V49.4782H70.131C70.2068 49.4782 70.2718 49.5436 70.2718 49.6198C70.2718 49.6961 70.2068 49.7615 70.131 49.7615H68.133C68.0518 49.7724 67.976 49.7124 67.9651 49.6253C67.9651 49.6144 67.9651 49.6035 67.9651 49.5926Z" fill="white"/>
<path d="M71.328 49.5933V46.2926C71.328 46.2054 71.3984 46.1346 71.4851 46.1346C71.5663 46.1346 71.6367 46.2054 71.6367 46.2871C71.6367 46.2871 71.6367 46.2871 71.6367 46.2926V49.4952H73.2611C73.3369 49.4952 73.4019 49.5606 73.4019 49.6369C73.4019 49.7131 73.3369 49.7785 73.2611 49.7785H71.4959C71.4147 49.7894 71.3389 49.7295 71.328 49.6478C71.328 49.6314 71.328 49.6096 71.328 49.5933Z" fill="white"/>
<path d="M76.077 49.5926V46.2919C76.0661 46.2102 76.1257 46.1339 76.2123 46.123C76.2232 46.123 76.234 46.123 76.2448 46.123H78.2428C78.3186 46.123 78.3836 46.1884 78.3836 46.2647C78.3836 46.3409 78.3186 46.4063 78.2428 46.4063H76.3856V47.7625H78.2049C78.2807 47.7625 78.3457 47.8279 78.3457 47.9041C78.3457 47.9804 78.2807 48.0457 78.2049 48.0457H76.3856V49.4782H78.2428C78.3186 49.4782 78.3836 49.5436 78.3836 49.6198C78.3836 49.6961 78.3186 49.7615 78.2428 49.7615H76.2448C76.1636 49.7724 76.0878 49.7124 76.077 49.6253C76.077 49.6144 76.077 49.6035 76.077 49.5926Z" fill="white"/>
<path d="M81.973 49.6968L79.7476 46.6303V49.6205C79.7476 49.7077 79.6826 49.773 79.5959 49.7785C79.5093 49.7785 79.4443 49.7077 79.4389 49.6205V46.3525C79.4389 46.2435 79.5256 46.151 79.6339 46.1455C79.6339 46.1455 79.6339 46.1455 79.6393 46.1455C79.7042 46.1455 79.7692 46.1782 79.8071 46.2327L82.0163 49.2501V46.2926C82.0163 46.2109 82.0813 46.1401 82.1625 46.1346C82.1625 46.1346 82.1625 46.1346 82.1679 46.1346C82.2546 46.1346 82.325 46.2054 82.325 46.2926V49.5606C82.325 49.6641 82.2383 49.7512 82.1354 49.7567C82.0759 49.7621 82.0163 49.7403 81.973 49.6968Z" fill="white"/>
<path d="M83.5328 49.5933V46.2926C83.5328 46.2054 83.6032 46.1346 83.6898 46.1346C83.7711 46.1346 83.8415 46.2054 83.8415 46.2871C83.8415 46.2871 83.8415 46.2871 83.8415 46.2926V49.4952H85.4659C85.5417 49.4952 85.6067 49.5606 85.6067 49.6369C85.6067 49.7131 85.5417 49.7785 85.4659 49.7785H83.7007C83.6195 49.7894 83.5437 49.7295 83.5328 49.6478C83.5328 49.6314 83.5328 49.6096 83.5328 49.5933Z" fill="white"/>
<path d="M86.5708 49.6205V46.2926C86.5708 46.2054 86.6411 46.1346 86.7278 46.1346C86.809 46.1346 86.8794 46.2054 86.8794 46.2871C86.8794 46.2871 86.8794 46.2871 86.8794 46.2926V49.6369C86.8794 49.724 86.8144 49.7894 86.7278 49.7948C86.6357 49.7948 86.5653 49.7186 86.5708 49.626C86.5708 49.626 86.5708 49.626 86.5708 49.6205Z" fill="white"/>
<path d="M91.1513 48.1335V49.103C91.1567 49.1847 91.1242 49.261 91.0646 49.31C90.312 50.0126 89.137 49.9691 88.4385 49.2174C87.74 48.4603 87.7833 47.2784 88.5306 46.5758C88.8717 46.2598 89.3157 46.0801 89.7814 46.0747C90.2524 46.0638 90.7073 46.2435 91.043 46.5812C91.0701 46.6084 91.0809 46.6411 91.0809 46.6792C91.0917 46.7555 91.0376 46.8263 90.9564 46.8372C90.9564 46.8372 90.9564 46.8372 90.9509 46.8372C90.913 46.8372 90.8805 46.8209 90.8535 46.7991C90.1983 46.2381 89.2128 46.3143 88.6551 46.9734C88.0974 47.6324 88.1732 48.6237 88.8284 49.1847C89.0937 49.4135 89.4294 49.5442 89.7814 49.5606C90.1875 49.5606 90.5773 49.4026 90.8643 49.1194V48.2425H89.6189C89.5431 48.2588 89.4673 48.2098 89.4511 48.1335C89.4348 48.0573 89.4836 47.981 89.5594 47.9647C89.5756 47.9647 89.5973 47.9647 89.6135 47.9647H90.9997C91.0809 47.9647 91.1513 48.0355 91.1459 48.1226C91.1459 48.1226 91.1459 48.1281 91.1459 48.1335H91.1513Z" fill="white"/>
<path d="M94.8445 49.6205V48.041H92.5758V49.6205C92.5758 49.7077 92.5108 49.773 92.4242 49.7785C92.3375 49.7785 92.2726 49.7077 92.2671 49.6205V46.2926C92.2671 46.2054 92.3375 46.1346 92.4242 46.1346C92.5054 46.1346 92.5758 46.2054 92.5758 46.2871C92.5758 46.2871 92.5758 46.2871 92.5758 46.2926V47.7741H94.8662V46.2926C94.8662 46.2054 94.9366 46.1346 95.0232 46.1346C95.1099 46.1346 95.1803 46.2054 95.1803 46.2926V49.6369C95.1803 49.724 95.1099 49.7948 95.0232 49.7948C94.9366 49.7948 94.8662 49.724 94.8662 49.6369L94.8445 49.6205Z" fill="white"/>
<path d="M97.2811 49.6205V46.4178H96.2253C96.1495 46.4178 96.0845 46.3525 96.0845 46.2762C96.0845 46.2 96.1495 46.1346 96.2253 46.1346H98.6565C98.7323 46.1346 98.7972 46.2 98.7972 46.2762C98.7972 46.3525 98.7323 46.4178 98.6565 46.4178H97.5735V49.6205C97.5735 49.7077 97.5031 49.7785 97.4165 49.7785C97.3299 49.7785 97.2595 49.7077 97.2595 49.6205H97.2811Z" fill="white"/>
<path d="M99.7225 49.5926V46.2919C99.7116 46.2102 99.7712 46.1339 99.8578 46.123C99.8687 46.123 99.8795 46.123 99.8903 46.123H101.888C101.964 46.123 102.029 46.1884 102.029 46.2647C102.029 46.3409 101.964 46.4063 101.888 46.4063H100.031V47.7625H101.85C101.926 47.7625 101.991 47.8279 101.991 47.9041C101.991 47.9804 101.926 48.0457 101.85 48.0457H100.031V49.4782H101.888C101.964 49.4782 102.029 49.5436 102.029 49.6198C102.029 49.6961 101.964 49.7615 101.888 49.7615H99.8903C99.8091 49.7724 99.7333 49.7124 99.7225 49.6253C99.7225 49.6144 99.7225 49.6035 99.7225 49.5926Z" fill="white"/>
<path d="M105.62 49.6968L103.405 46.6303V49.6205C103.405 49.7077 103.34 49.773 103.253 49.7785C103.167 49.7785 103.102 49.7077 103.096 49.6205V46.3525C103.096 46.2435 103.183 46.151 103.291 46.1455C103.291 46.1455 103.291 46.1455 103.297 46.1455C103.362 46.1455 103.427 46.1782 103.465 46.2327L105.674 49.2501V46.2926C105.674 46.2109 105.739 46.1401 105.82 46.1346C105.82 46.1346 105.82 46.1346 105.825 46.1346C105.912 46.1346 105.982 46.2054 105.982 46.2926V49.5606C105.982 49.6641 105.896 49.7512 105.793 49.7567C105.728 49.7676 105.663 49.7458 105.62 49.6968Z" fill="white"/>
<path d="M107.196 49.5926V46.2919C107.185 46.2102 107.244 46.1339 107.331 46.123C107.342 46.123 107.353 46.123 107.363 46.123H109.361C109.437 46.123 109.502 46.1884 109.502 46.2647C109.502 46.3409 109.437 46.4063 109.361 46.4063H107.504V47.7625H109.324C109.399 47.7625 109.464 47.8279 109.464 47.9041C109.464 47.9804 109.399 48.0457 109.324 48.0457H107.504V49.4782H109.361C109.437 49.4782 109.502 49.5436 109.502 49.6198C109.502 49.6961 109.437 49.7615 109.361 49.7615H107.363C107.282 49.7724 107.206 49.7124 107.196 49.6253C107.196 49.6144 107.196 49.6035 107.196 49.5926Z" fill="white"/>
<path d="M110.541 49.5926V46.2919C110.53 46.2102 110.59 46.1339 110.677 46.123C110.688 46.123 110.698 46.123 110.709 46.123H111.695C112.691 46.123 113.498 46.9346 113.498 47.9368C113.498 48.939 112.691 49.7506 111.695 49.7506H110.709C110.628 49.7615 110.552 49.7015 110.541 49.6144C110.541 49.609 110.541 49.5981 110.541 49.5926ZM111.695 49.4782C112.534 49.4782 113.216 48.7919 113.216 47.9477C113.216 47.1035 112.534 46.4172 111.695 46.4172H110.85V49.4782H111.695Z" fill="white"/>
<defs>
<linearGradient id="paint0_linear_0_53" x1="17.1106" y1="36.5041" x2="20.0183" y2="36.5041" gradientUnits="userSpaceOnUse">
<stop stop-color="white"/>
<stop offset="1"/>
</linearGradient>
<linearGradient id="paint1_linear_0_53" x1="9.73843e-05" y1="20.2135" x2="63.7096" y2="20.2135" gradientUnits="userSpaceOnUse">
<stop stop-color="#03659C"/>
<stop offset="1" stop-color="#06B2B8"/>
</linearGradient>
<linearGradient id="paint2_linear_0_53" x1="14.5926" y1="50.5247" x2="63.7561" y2="12.1291" gradientUnits="userSpaceOnUse">
<stop stop-color="#06B2B8"/>
<stop offset="0.2" stop-color="#06ABB5"/>
<stop offset="0.49" stop-color="#0596AE"/>
<stop offset="0.85" stop-color="#0476A2"/>
<stop offset="1" stop-color="#03659C"/>
</linearGradient>
</defs>
</svg>
