<svg width="389" height="266" viewBox="0 0 389 266" fill="none" xmlns="http://www.w3.org/2000/svg">
<path opacity="0.4" d="M130.332 11.5031C316.39 41.3692 495.927 127.222 265.675 199.696C-22.1405 290.289 34.6298 117.518 171.299 127.066" stroke="#13AFB6" stroke-width="3" stroke-dasharray="6 6"/>
<path d="M126.662 129.959C129.336 127.773 132.322 125.511 135.521 123.296C132.387 125.26 129.417 127.485 126.662 129.959Z" fill="url(#paint0_linear_2002_613)"/>
<path d="M232.841 106.054L233.216 105.191C233.491 104.25 233.594 103.268 233.506 102.293C232.318 89.9285 201.323 82.785 164.21 86.2953C127.098 89.8056 97.9595 102.536 99.1263 114.846C99.7759 121.99 110.535 127.386 126.698 129.975C136.411 121.296 148.48 115.703 161.369 113.913C173.951 112.392 186.466 116.231 199.101 117.333C208.059 118.109 219.668 117.728 226.926 113.114C229.475 111.32 231.514 108.881 232.841 106.054Z" fill="url(#paint1_linear_2002_613)"/>
<path d="M232.851 106.059C231.529 108.899 229.486 111.347 226.919 113.156C219.645 117.808 208.053 118.151 199.095 117.375C186.467 116.231 173.952 112.393 161.369 113.914C152.179 115.133 143.364 118.335 135.53 123.301C132.341 125.52 129.357 127.75 126.671 129.964C113.872 140.494 107.223 150.706 110.274 157.241C115.489 168.431 147.086 164.6 180.838 148.731C209.037 135.47 229.807 117.991 232.851 106.059Z" fill="url(#paint2_linear_2002_613)"/>
<defs>
<linearGradient id="paint0_linear_2002_613" x1="128.586" y1="125.528" x2="133.615" y2="127.712" gradientUnits="userSpaceOnUse">
<stop stop-color="white"/>
<stop offset="1"/>
</linearGradient>
<linearGradient id="paint1_linear_2002_613" x1="111.179" y1="84.6008" x2="221.379" y2="132.451" gradientUnits="userSpaceOnUse">
<stop stop-color="#03659C"/>
<stop offset="1" stop-color="#06B2B8"/>
</linearGradient>
<linearGradient id="paint2_linear_2002_613" x1="113.738" y1="147.8" x2="227.406" y2="118.151" gradientUnits="userSpaceOnUse">
<stop stop-color="#06B2B8"/>
<stop offset="0.2" stop-color="#06ABB5"/>
<stop offset="0.49" stop-color="#0596AE"/>
<stop offset="0.85" stop-color="#0476A2"/>
<stop offset="1" stop-color="#03659C"/>
</linearGradient>
</defs>
</svg>
