<svg width="15" height="27" viewBox="0 0 15 27" fill="none" xmlns="http://www.w3.org/2000/svg">
<path d="M4.17857 15.2537H0.728571C0.171428 15.2537 0 15.0461 0 14.548C0 13.1991 0 11.8086 0 10.4596C0 9.92006 0.214285 9.71253 0.728571 9.71253H4.17857V6.74481C4.13571 5.43736 4.45714 4.10915 5.12143 2.92621C5.82857 1.74327 6.94286 0.871637 8.22857 0.435819C9.10714 0.12452 9.96428 0 10.8857 0H14.2929C14.7857 0 15 0.207533 15 0.684858V4.52421C15 5.00154 14.7857 5.20907 14.2929 5.20907C13.35 5.20907 12.4071 5.20907 11.4643 5.25058C10.5214 5.29208 10.0286 5.68639 10.0286 6.64105C9.98571 7.65796 10.0286 8.63336 10.0286 9.67102H14.0357C14.5929 9.67102 14.8071 9.87855 14.8071 10.4181V14.5065C14.8071 15.0461 14.6357 15.2537 14.0357 15.2537H10.0714V26.2321C10.0714 26.8132 9.85714 27 9.27857 27H4.92857C4.41429 27 4.2 26.7925 4.2 26.2944L4.17857 15.2537Z" fill="white"/>
</svg>
