<svg width="29" height="24" viewBox="0 0 29 24" fill="none" xmlns="http://www.w3.org/2000/svg">
<path d="M23.5063 23.9999C22.9243 24.0048 22.4111 23.7998 21.9417 23.4762C19.0836 21.505 16.2256 19.5329 13.3708 17.556C12.2668 16.7918 12.181 15.7428 13.149 14.7947C15.8298 12.1674 18.5179 9.54739 21.2019 6.92332C21.3306 6.79825 21.4641 6.67641 21.5758 6.53681C21.6689 6.42062 21.6778 6.28183 21.5815 6.1495C21.4803 6.01071 21.3322 6.01071 21.2035 6.05993C21.057 6.11561 20.9242 6.21163 20.7931 6.3012C17.328 8.65817 13.8565 11.0047 10.4043 13.381C8.79926 14.4857 7.10435 14.7996 5.23299 14.2049C3.90313 13.7828 2.55707 13.4101 1.21912 13.0139C1.06614 12.9687 0.91154 12.9259 0.764227 12.8662C0.318241 12.6887 0.0211874 12.3611 0.000952141 11.8842C-0.0200926 11.3855 0.310147 11.0983 0.750467 10.9119C2.05443 10.3616 3.35434 9.79995 4.6575 9.24722C11.578 6.31007 18.4984 3.37373 25.4189 0.438203C26.1045 0.147716 26.7973 -0.0943562 27.5655 0.0363629C28.5052 0.196938 29.109 0.9401 28.9836 1.85917C28.7011 3.93534 28.3627 6.00345 27.9985 8.06752C27.7363 9.55223 27.593 11.0571 27.372 12.5491C27.1567 13.9991 26.9001 15.4435 26.6792 16.8935C26.4282 18.5371 26.1789 20.1816 25.9636 21.8301C25.805 23.0437 24.7681 23.9862 23.5079 23.9991L23.5063 23.9999Z" fill="white"/>
</svg>
