<svg width="24" height="27" viewBox="0 0 24 27" fill="none" xmlns="http://www.w3.org/2000/svg">
<path d="M23.9871 6.76043C22.4257 6.76043 20.9851 6.24917 19.8282 5.38669C18.5014 4.39798 17.5481 2.94765 17.2115 1.27603C17.1281 0.863011 17.0832 0.436787 17.079 0H12.6187L12.6133 18.6445C12.6133 20.4086 11.4511 21.9043 9.84003 22.4304C9.37247 22.583 8.8675 22.6554 8.34169 22.6268C7.67054 22.5904 7.0416 22.3902 6.49496 22.067C5.33166 21.3793 4.54295 20.1318 4.52158 18.7047C4.48791 16.4743 6.31221 14.6559 8.56719 14.6559C9.01231 14.6559 9.4398 14.7277 9.84003 14.8582V10.382C9.41789 10.3202 8.98826 10.288 8.55383 10.288C6.08564 10.288 3.77722 11.3021 2.12713 13.129C0.87994 14.5096 0.131841 16.271 0.0164205 18.118C-0.134802 20.5443 0.763451 22.8508 2.50545 24.5525C2.76141 24.8023 3.03019 25.0342 3.31126 25.2481C4.80479 26.3842 6.63068 27 8.55383 27C8.98826 27 9.41789 26.9683 9.84003 26.9065C11.6365 26.6435 13.2941 25.8307 14.6022 24.5525C16.2096 22.9823 17.0977 20.8977 17.1073 18.6789L17.0843 8.82553C17.8511 9.4102 18.6895 9.894 19.5894 10.2695C20.9888 10.8531 22.4727 11.1489 23.9999 11.1484V6.75937C24.001 6.76043 23.9882 6.76043 23.9871 6.76043Z" fill="white"/>
</svg>
