<svg width="42" height="28" viewBox="0 0 42 28" fill="none" xmlns="http://www.w3.org/2000/svg">
<path d="M41.5816 6.04166C41.5816 6.04166 41.1715 3.29686 39.9082 2.09164C38.3086 0.505415 36.5203 0.497639 35.7 0.404332C29.8266 -2.22462e-07 21.0082 0 21.0082 0H20.9918C20.9918 0 12.1734 -2.22462e-07 6.3 0.404332C5.47969 0.497639 3.69141 0.505415 2.0918 2.09164C0.828516 3.29686 0.426562 6.04166 0.426562 6.04166C0.426562 6.04166 0 9.26854 0 12.4876V15.5046C0 18.7237 0.418359 21.9506 0.418359 21.9506C0.418359 21.9506 0.828516 24.6954 2.08359 25.9006C3.6832 27.4868 5.7832 27.4324 6.71836 27.6034C10.0816 27.9067 21 28 21 28C21 28 29.8266 27.9844 35.7 27.5879C36.5203 27.4946 38.3086 27.4868 39.9082 25.9006C41.1715 24.6954 41.5816 21.9506 41.5816 21.9506C41.5816 21.9506 42 18.7315 42 15.5046V12.4876C42 9.26854 41.5816 6.04166 41.5816 6.04166ZM16.6605 19.1669V7.97778L28.0055 13.5918L16.6605 19.1669Z" fill="white"/>
</svg>
