<svg width="590" height="219" viewBox="0 0 590 219" fill="none" xmlns="http://www.w3.org/2000/svg">
<path d="M10.116 214H7.89V199.531H10.116V214ZM15.6838 208.729V214H13.5208V204.193H15.6838V205.663C16.2088 204.592 17.5108 203.983 18.6868 203.983C21.0598 203.983 22.4248 205.516 22.4248 208.288V214H20.2618V208.54C20.2618 207.007 19.4638 206.104 18.2038 206.104C16.7758 206.104 15.6838 206.944 15.6838 208.729ZM30.0612 214H28.0662L23.9712 204.193H26.2602L29.0742 211.249L31.8462 204.193H34.1562L30.0612 214ZM38.0778 214H35.9358V204.193H38.0778V214ZM37.0068 198.859C37.8258 198.859 38.4348 199.447 38.4348 200.224C38.4348 201.001 37.8258 201.589 37.0068 201.589C36.2298 201.589 35.5578 200.98 35.5578 200.224C35.5578 199.468 36.2298 198.859 37.0068 198.859ZM41.8808 200.476H44.0438V204.193H46.1228V205.978H44.0438V214H41.8808V205.978H40.1168V204.193H41.8808V200.476ZM57.8009 214H55.6589V212.593C55.0499 213.601 53.6429 214.21 52.3619 214.21C50.9969 214.21 49.8209 213.727 48.8339 212.782C47.8679 211.837 47.3849 210.598 47.3849 209.086C47.3849 207.574 47.8679 206.356 48.8339 205.411C49.8209 204.466 50.9969 203.983 52.3619 203.983C53.6429 203.983 55.0079 204.55 55.6589 205.579V204.193H57.8009V214ZM55.6379 209.065C55.6379 208.162 55.3229 207.427 54.7139 206.902C54.1049 206.356 53.4119 206.083 52.6139 206.083C51.7739 206.083 51.0599 206.356 50.4719 206.923C49.9049 207.469 49.6109 208.183 49.6109 209.065C49.6109 209.947 49.9049 210.682 50.4719 211.249C51.0599 211.816 51.7739 212.11 52.6139 212.11C54.2939 212.11 55.6379 210.913 55.6379 209.065ZM61.6093 200.476H63.7723V204.193H65.8513V205.978H63.7723V214H61.6093V205.978H59.8453V204.193H61.6093V200.476ZM70.029 214H67.887V204.193H70.029V214ZM68.958 198.859C69.777 198.859 70.386 199.447 70.386 200.224C70.386 201.001 69.777 201.589 68.958 201.589C68.181 201.589 67.509 200.98 67.509 200.224C67.509 199.468 68.181 198.859 68.958 198.859ZM77.528 212.11C78.368 212.11 79.082 211.837 79.649 211.27C80.216 210.703 80.51 209.968 80.51 209.065C80.51 207.301 79.208 206.104 77.528 206.104C76.709 206.104 75.995 206.377 75.428 206.923C74.861 207.469 74.567 208.183 74.567 209.065C74.567 209.968 74.861 210.703 75.428 211.27C75.995 211.837 76.709 212.11 77.528 212.11ZM77.528 203.983C78.977 203.983 80.195 204.445 81.182 205.39C82.169 206.335 82.673 207.553 82.673 209.065C82.673 210.577 82.169 211.816 81.161 212.782C80.174 213.727 78.956 214.21 77.528 214.21C76.1 214.21 74.882 213.727 73.895 212.782C72.908 211.816 72.425 210.577 72.425 209.065C72.425 207.553 72.908 206.335 73.895 205.39C74.882 204.445 76.1 203.983 77.528 203.983ZM87.2355 208.729V214H85.0725V204.193H87.2355V205.663C87.7605 204.592 89.0625 203.983 90.2385 203.983C92.6115 203.983 93.9765 205.516 93.9765 208.288V214H91.8135V208.54C91.8135 207.007 91.0155 206.104 89.7555 206.104C88.3275 206.104 87.2355 206.944 87.2355 208.729ZM105.85 210.073L104.527 209.758C102.49 209.191 101.671 208.183 101.818 206.566C101.881 205.831 102.238 205.222 102.931 204.739C103.624 204.235 104.422 203.983 105.325 203.983C107.257 203.983 108.79 204.928 108.895 206.881H106.837C106.753 206.188 106.144 205.831 105.409 205.831C104.842 205.831 104.212 206.041 104.023 206.377C103.855 206.65 103.834 206.944 103.939 207.259C104.044 207.574 104.443 207.826 105.136 208.015L106.648 208.393C108.349 208.813 109.21 209.758 109.21 211.249C109.21 213.097 107.593 214.21 105.304 214.21C104.317 214.21 103.456 213.916 102.7 213.349C101.944 212.761 101.566 211.984 101.545 210.997H103.54C103.645 211.858 104.359 212.404 105.472 212.404C106.48 212.404 107.215 211.963 107.215 211.228C107.215 210.661 106.753 210.283 105.85 210.073ZM120.893 209.065C120.893 209.464 120.893 209.716 120.872 209.863H113.081C113.27 211.375 114.488 212.32 116.084 212.32C117.197 212.32 118.247 211.816 118.751 210.913L120.515 211.69C119.675 213.349 117.932 214.21 115.979 214.21C114.551 214.21 113.354 213.727 112.388 212.782C111.422 211.837 110.939 210.598 110.939 209.065C110.939 207.532 111.422 206.314 112.388 205.39C113.354 204.445 114.551 203.983 115.979 203.983C117.407 203.983 118.583 204.445 119.507 205.39C120.431 206.314 120.893 207.532 120.893 209.065ZM113.081 208.288H118.772C118.583 206.776 117.47 205.873 115.979 205.873C114.446 205.873 113.27 206.797 113.081 208.288ZM125.339 208.729V214H123.176V204.193H125.339V205.663C125.864 204.592 127.166 203.983 128.342 203.983C130.715 203.983 132.08 205.516 132.08 208.288V214H129.917V208.54C129.917 207.007 129.119 206.104 127.859 206.104C126.431 206.104 125.339 206.944 125.339 208.729ZM135.786 200.476H137.949V204.193H140.028V205.978H137.949V214H135.786V205.978H134.022V204.193H135.786V200.476ZM149.17 209.065C149.17 210.913 150.493 212.11 152.173 212.11C152.992 212.11 153.706 211.816 154.273 211.249C154.84 210.682 155.134 209.947 155.134 209.065C155.134 207.301 153.853 206.083 152.173 206.083C151.375 206.083 150.682 206.356 150.073 206.902C149.464 207.427 149.17 208.162 149.17 209.065ZM149.149 212.572V214H146.986V198.859H149.149V205.6C149.737 204.571 151.018 203.983 152.446 203.983C153.811 203.983 154.966 204.445 155.911 205.39C156.856 206.335 157.339 207.574 157.339 209.107C157.339 210.598 156.856 211.837 155.89 212.782C154.945 213.727 153.79 214.21 152.425 214.21C151.06 214.21 149.737 213.601 149.149 212.572ZM166.109 204.193H168.419L162.35 218.788H160.082L162.203 213.538L158.318 204.193H160.628L163.358 210.913L166.109 204.193ZM171.565 211.375C172.384 211.375 173.035 211.984 173.035 212.803C173.035 213.622 172.384 214.21 171.565 214.21C170.725 214.21 170.074 213.622 170.074 212.803C170.074 211.984 170.725 211.375 171.565 211.375ZM170.074 205.411C170.074 204.571 170.725 203.983 171.565 203.983C172.384 203.983 173.035 204.592 173.035 205.411C173.035 206.23 172.384 206.839 171.565 206.839C170.725 206.839 170.074 206.23 170.074 205.411Z" fill="#505D65"/>
<path d="M183.879 214H181.653V199.531H190.242V201.589H183.879V205.873H188.919V207.91H183.879V214ZM194.491 214H192.349V204.193H194.491V214ZM193.42 198.859C194.239 198.859 194.848 199.447 194.848 200.224C194.848 201.001 194.239 201.589 193.42 201.589C192.643 201.589 191.971 200.98 191.971 200.224C191.971 199.468 192.643 198.859 193.42 198.859ZM199.68 210.472V214H197.517V204.193H199.68V206.44C200.163 204.802 201.045 203.983 202.368 203.983C203.145 203.983 203.733 204.109 204.111 204.361L203.754 206.356C203.313 206.125 202.83 206.02 202.305 206.02C200.541 206.02 199.68 207.721 199.68 210.472ZM215.024 209.065C215.024 209.464 215.024 209.716 215.003 209.863H207.212C207.401 211.375 208.619 212.32 210.215 212.32C211.328 212.32 212.378 211.816 212.882 210.913L214.646 211.69C213.806 213.349 212.063 214.21 210.11 214.21C208.682 214.21 207.485 213.727 206.519 212.782C205.553 211.837 205.07 210.598 205.07 209.065C205.07 207.532 205.553 206.314 206.519 205.39C207.485 204.445 208.682 203.983 210.11 203.983C211.538 203.983 212.714 204.445 213.638 205.39C214.562 206.314 215.024 207.532 215.024 209.065ZM207.212 208.288H212.903C212.714 206.776 211.601 205.873 210.11 205.873C208.577 205.873 207.401 206.797 207.212 208.288ZM225.329 214V200.938H222.116C220.961 200.938 220.373 201.715 220.373 203.29V204.193H222.578V205.978H220.373V214H218.189V205.978H216.32V204.193H218.189V203.29C218.189 200.518 219.512 198.859 222.116 198.859H227.492V214H225.329ZM232.656 214H230.514V204.193H232.656V214ZM231.585 198.859C232.404 198.859 233.013 199.447 233.013 200.224C233.013 201.001 232.404 201.589 231.585 201.589C230.808 201.589 230.136 200.98 230.136 200.224C230.136 199.468 230.808 198.859 231.585 198.859ZM245.006 209.065C245.006 209.464 245.006 209.716 244.985 209.863H237.194C237.383 211.375 238.601 212.32 240.197 212.32C241.31 212.32 242.36 211.816 242.864 210.913L244.628 211.69C243.788 213.349 242.045 214.21 240.092 214.21C238.664 214.21 237.467 213.727 236.501 212.782C235.535 211.837 235.052 210.598 235.052 209.065C235.052 207.532 235.535 206.314 236.501 205.39C237.467 204.445 238.664 203.983 240.092 203.983C241.52 203.983 242.696 204.445 243.62 205.39C244.544 206.314 245.006 207.532 245.006 209.065ZM237.194 208.288H242.885C242.696 206.776 241.583 205.873 240.092 205.873C238.559 205.873 237.383 206.797 237.194 208.288ZM250.901 210.073L249.578 209.758C247.541 209.191 246.722 208.183 246.869 206.566C246.932 205.831 247.289 205.222 247.982 204.739C248.675 204.235 249.473 203.983 250.376 203.983C252.308 203.983 253.841 204.928 253.946 206.881H251.888C251.804 206.188 251.195 205.831 250.46 205.831C249.893 205.831 249.263 206.041 249.074 206.377C248.906 206.65 248.885 206.944 248.99 207.259C249.095 207.574 249.494 207.826 250.187 208.015L251.699 208.393C253.4 208.813 254.261 209.758 254.261 211.249C254.261 213.097 252.644 214.21 250.355 214.21C249.368 214.21 248.507 213.916 247.751 213.349C246.995 212.761 246.617 211.984 246.596 210.997H248.591C248.696 211.858 249.41 212.404 250.523 212.404C251.531 212.404 252.266 211.963 252.266 211.228C252.266 210.661 251.804 210.283 250.901 210.073Z" fill="#13AFB6"/>
<path d="M52.0297 118.64L44.5097 125.2C41.0697 121.6 36.9097 119.84 32.0297 119.84C26.9897 119.84 22.7497 121.68 19.3097 125.36C15.8697 128.96 14.1897 133.36 14.1897 138.56C14.1897 143.76 15.8697 148.16 19.3097 151.84C22.7497 155.52 26.9897 157.36 32.0297 157.36C35.9497 157.36 39.3097 156.32 42.2697 154.16C45.2297 152 46.8297 149.28 46.9097 145.92H31.7897V137.52H58.6697C58.6697 157.04 48.4297 166.8 32.0297 166.8C24.1897 166.8 17.5497 164.08 12.1097 158.56C6.66969 153.04 3.94969 146.32 3.94969 138.56C3.94969 130.72 6.66969 124.08 12.1097 118.56C17.5497 113.04 24.1897 110.24 32.0297 110.24C40.1097 110.24 46.8297 113.04 52.0297 118.64ZM102.418 147.2C102.418 148.24 102.338 149.36 102.258 150.56H73.7784C74.4184 155.44 78.5784 158.56 84.0984 158.56C88.0184 158.56 91.7784 156.88 93.4584 153.76L100.898 157.76C97.6984 163.84 90.8984 166.8 83.4584 166.8C78.0184 166.8 73.4584 164.96 69.6984 161.36C65.9384 157.68 64.0984 152.96 64.0984 147.2C64.0984 141.44 65.9384 136.8 69.6984 133.2C73.4584 129.6 78.0184 127.84 83.4584 127.84C88.8984 127.84 93.3784 129.6 96.9784 133.2C100.578 136.8 102.418 141.44 102.418 147.2ZM73.6984 143.92H92.8984C92.1784 138.88 88.4184 136 83.5384 136C78.3384 136 74.4184 139.04 73.6984 143.92ZM113.757 114.4H123.437V128.64H131.357V136.48H123.437V166H113.757V136.48H106.957V128.64H113.757V114.4ZM171.125 151.68L166.005 150.4C156.405 147.68 155.445 143.44 155.445 138.96C155.445 136 156.805 133.36 159.525 131.2C162.245 128.96 165.445 127.84 169.205 127.84C173.125 127.84 176.485 128.8 179.285 130.72C182.085 132.64 183.605 135.6 183.765 139.6H174.485C174.405 137.04 172.005 135.76 169.445 135.76C166.325 135.76 164.725 136.96 164.725 139.44C164.725 140.8 166.005 141.84 168.645 142.56L174.885 144.08C183.445 146.32 184.645 152.32 184.645 155.28C184.645 158.88 183.125 161.76 180.085 163.76C177.125 165.76 173.525 166.8 169.365 166.8C165.445 166.8 161.925 165.68 158.885 163.44C155.925 161.12 154.405 158.08 154.325 154.24H163.445C163.685 156.88 166.805 159.04 170.325 158.96C173.125 158.88 175.205 157.36 175.205 155.2C175.285 153.36 174.005 152.32 171.125 151.68ZM196.413 114.4H206.093V128.64H214.013V136.48H206.093V166H196.413V136.48H189.613V128.64H196.413V114.4ZM258.952 166H249.192V161.2C246.952 164.72 241.752 166.72 237.592 166.72C232.472 166.72 227.992 164.96 224.232 161.36C220.472 157.76 218.552 153.04 218.552 147.28C218.552 141.52 220.392 136.88 224.152 133.28C227.912 129.68 232.392 127.84 237.592 127.84C241.752 127.84 246.712 129.52 249.192 133.28V128.64H258.952V166ZM249.192 147.28C249.192 144.16 248.152 141.76 246.072 139.92C244.072 138.08 241.672 137.2 238.952 137.2C236.152 137.2 233.752 138.16 231.672 140.08C229.672 141.92 228.632 144.32 228.632 147.28C228.632 150.24 229.672 152.64 231.672 154.56C237.592 160.48 249.592 156.56 249.192 147.28ZM279.772 152.8V166H270.012V128.64H279.772V137.44C281.612 131.04 285.772 127.84 290.332 127.84C292.732 127.84 294.812 128.32 296.492 129.2L294.812 138C293.292 137.28 291.372 136.96 289.132 136.96C282.892 136.96 279.772 142.24 279.772 152.8ZM306.023 114.4H315.703V128.64H323.623V136.48H315.703V166H306.023V136.48H299.223V128.64H306.023V114.4ZM366.481 147.2C366.481 148.24 366.401 149.36 366.321 150.56H337.841C338.481 155.44 342.641 158.56 348.161 158.56C352.081 158.56 355.841 156.88 357.521 153.76L364.961 157.76C361.761 163.84 354.961 166.8 347.521 166.8C342.081 166.8 337.521 164.96 333.761 161.36C330.001 157.68 328.161 152.96 328.161 147.2C328.161 141.44 330.001 136.8 333.761 133.2C337.521 129.6 342.081 127.84 347.521 127.84C352.961 127.84 357.441 129.6 361.041 133.2C364.641 136.8 366.481 141.44 366.481 147.2ZM337.761 143.92H356.961C356.241 138.88 352.481 136 347.601 136C342.401 136 338.481 139.04 337.761 143.92ZM412.14 166H402.46V160.96C400.46 164.56 395.74 166.8 390.7 166.8C385.66 166.8 381.34 165.04 377.74 161.44C374.14 157.84 372.38 153.12 372.38 147.36C372.38 141.52 374.14 136.88 377.74 133.28C381.34 129.68 385.66 127.84 390.7 127.84C395.82 127.84 400.46 130 402.46 133.6V108.32H412.14V166ZM392.3 137.12C386.78 137.12 382.46 141.2 382.46 147.2C382.46 150.24 383.42 152.72 385.26 154.64C387.18 156.48 389.5 157.44 392.3 157.44C395.1 157.44 397.42 156.48 399.34 154.64C401.34 152.72 402.3 150.24 402.3 147.2C402.3 144.16 401.26 141.76 399.26 139.92C397.26 138.08 394.94 137.12 392.3 137.12ZM452.819 146.08V166H443.059V128.64H452.819V134.16C454.819 130.32 459.459 127.84 463.939 127.84C472.819 127.84 477.859 133.44 477.859 143.92V166H468.099V145.68C468.099 140.32 465.379 137.36 460.979 137.36C456.179 137.36 452.819 140 452.819 146.08ZM515.33 147.2C515.33 141.44 511.09 137.44 505.57 137.44C500.05 137.44 495.81 141.44 495.81 147.2C495.81 153.2 500.05 157.2 505.57 157.2C511.09 157.2 515.33 153.2 515.33 147.2ZM519.33 161.28C515.57 164.88 511.01 166.72 505.57 166.72C500.13 166.72 495.49 164.88 491.73 161.28C487.97 157.68 486.13 152.96 486.13 147.2C486.13 141.44 487.97 136.8 491.73 133.2C495.49 129.6 500.13 127.84 505.57 127.84C511.01 127.84 515.57 129.6 519.33 133.2C523.09 136.8 525.01 141.44 525.01 147.2C525.01 152.96 523.09 157.68 519.33 161.28ZM577.937 128.64H588.337L574.977 166H566.817L558.497 140.96L550.417 166H542.337L528.577 128.64H538.977L546.577 152.24L554.097 128.64H562.737L570.337 152.24L577.937 128.64Z" fill="#505D65"/>
<path d="M176.137 59.5539L177.08 59.8852L177.08 59.8852L176.137 59.5539ZM13.4874 42.2507C13.1971 41.7809 12.5809 41.6354 12.1111 41.9257C11.6412 42.216 11.4957 42.8322 11.786 43.302L12.6367 42.7764L13.4874 42.2507ZM12.6367 42.7764L11.786 43.302C12.3498 44.2145 12.9397 45.0863 13.5547 45.9183L14.3589 45.3239L15.1631 44.7295C14.5816 43.9429 14.0228 43.1171 13.4874 42.2507L12.6367 42.7764ZM18.3292 49.8137L17.643 50.541C19.167 51.979 20.7944 53.2437 22.5152 54.3474L23.0551 53.5057L23.595 52.6639C21.9769 51.6261 20.4478 50.4377 19.0155 49.0863L18.3292 49.8137ZM28.3767 56.2832L27.9919 57.2062C29.868 57.9884 31.8228 58.6244 33.8461 59.1276L34.0874 58.1572L34.3288 57.1867C32.3957 56.706 30.5375 56.1007 28.7615 55.3602L28.3767 56.2832ZM40.0093 59.2327L39.8895 60.2255C41.8779 60.4654 43.9179 60.6025 46.0018 60.6471L46.0232 59.6473L46.0446 58.6475C44.0201 58.6042 42.0462 58.4712 40.1291 58.2399L40.0093 59.2327ZM52.0606 59.5305L52.1176 60.5288C54.1087 60.415 56.1324 60.231 58.1829 59.9846L58.0636 58.9917L57.9443 57.9989C55.9312 58.2408 53.9492 58.4209 52.0035 58.5321L52.0606 59.5305ZM64.0055 58.1206L64.1744 59.1062C66.1402 58.7693 68.1256 58.3838 70.1261 57.9562L69.917 56.9783L69.708 56.0004C67.7317 56.4229 65.7731 56.803 63.8365 57.135L64.0055 58.1206ZM75.7955 55.6151L76.0371 56.5855C77.9837 56.1008 79.9406 55.5827 81.9039 55.0365L81.6358 54.0731L81.3678 53.1096C79.4205 53.6514 77.4812 54.1649 75.5539 54.6447L75.7955 55.6151ZM87.4114 52.3945L87.7008 53.3518C89.6228 52.7708 91.5473 52.1682 93.4706 51.549L93.1641 50.5971L92.8576 49.6452C90.9445 50.2612 89.0314 50.8602 87.1221 51.4373L87.4114 52.3945ZM98.891 48.7065L99.2109 49.654C101.118 49.0099 103.021 48.3543 104.916 47.692L104.586 46.748L104.256 45.804C102.367 46.4643 100.471 47.1176 98.5711 47.7591L98.891 48.7065ZM110.273 44.7346L110.61 45.6761C112.517 44.9938 114.412 44.3097 116.29 43.629L115.949 42.6889L115.609 41.7487C113.732 42.4289 111.84 43.112 109.937 43.7931L110.273 44.7346ZM121.608 40.6348L121.949 41.5748C123.855 40.8829 125.74 40.2003 127.599 39.5326L127.261 38.5915L126.923 37.6503C125.061 38.3192 123.174 39.0026 121.267 39.6948L121.608 40.6348ZM132.962 36.5677L133.292 37.5115C135.229 36.8336 137.131 36.1799 138.993 35.5574L138.676 34.609L138.359 33.6605C136.486 34.2866 134.575 34.9435 132.631 35.6238L132.962 36.5677ZM144.416 32.7555L144.712 33.7107C146.689 33.098 148.608 32.5338 150.462 32.0275L150.199 31.0628L149.936 30.0981C148.055 30.6114 146.114 31.1822 144.12 31.8003L144.416 32.7555ZM156.052 29.6185L156.264 30.5959C158.331 30.1486 160.287 29.8028 162.12 29.5742L161.996 28.5819L161.872 27.5896C159.968 27.827 157.953 28.1841 155.841 28.6412L156.052 29.6185ZM167.987 28.2758L167.946 29.275C170.099 29.3628 171.945 29.7164 173.474 30.3538L173.859 29.4308L174.244 28.5077C172.436 27.7541 170.342 27.371 168.028 27.2766L167.987 28.2758ZM178.371 33.2089L177.519 33.7314C178.34 35.0711 178.887 36.7903 179.088 38.9741L180.084 38.8824L181.08 38.7908C180.858 36.3751 180.24 34.344 179.224 32.6863L178.371 33.2089ZM179.9 44.9424L178.908 44.8164C178.687 46.5616 178.324 48.4794 177.809 50.5816L178.78 50.8195L179.751 51.0574C180.281 48.8946 180.66 46.9013 180.892 45.0684L179.9 44.9424ZM177.154 56.529L176.201 56.224C175.891 57.1927 175.555 58.192 175.193 59.2226L176.137 59.5539L177.08 59.8852C177.448 58.8384 177.79 57.8215 178.106 56.8341L177.154 56.529ZM176.137 59.5539L175.193 59.2226C174.827 60.2659 174.503 61.2841 174.221 62.2774L175.183 62.5504L176.145 62.8233C176.415 61.8715 176.727 60.8922 177.08 59.8852L176.137 59.5539ZM173.965 68.4841L172.972 68.3665C172.708 70.5996 172.696 72.6821 172.928 74.6144L173.92 74.4955L174.913 74.3767C174.703 72.6204 174.71 70.698 174.958 68.6018L173.965 68.4841ZM175.61 80.3228L174.714 80.7674C175.682 82.7173 176.992 84.4143 178.6 85.8638L179.27 85.1208L179.939 84.3779C178.51 83.0901 177.357 81.5933 176.506 79.8782L175.61 80.3228ZM184.335 88.4026L183.915 89.31C185.734 90.1528 187.738 90.8203 189.901 91.3217L190.127 90.3475L190.353 89.3734C188.304 88.8984 186.433 88.2724 184.755 87.4953L184.335 88.4026ZM196.106 91.2751L196.018 92.2712C197.983 92.4449 200.042 92.5157 202.185 92.487L202.171 91.4871L202.158 90.4871C200.076 90.515 198.085 90.4461 196.194 90.279L196.106 91.2751ZM208.243 91.1588L208.335 92.1546C210.315 91.9729 212.352 91.7187 214.436 91.394L214.282 90.4059L214.129 89.4178C212.082 89.7365 210.088 89.9853 208.152 90.163L208.243 91.1588ZM220.273 89.3057L220.479 90.2842C222.44 89.8717 224.435 89.403 226.46 88.8792L226.21 87.9111L225.959 86.943C223.963 87.4594 221.997 87.9211 220.067 88.3271L220.273 89.3057ZM232.071 86.2646L232.361 87.2218C234.276 86.6423 236.212 86.0169 238.165 85.3467L237.841 84.4008L237.516 83.455C235.586 84.1175 233.673 84.7353 231.782 85.3075L232.071 86.2646ZM243.553 82.3291L243.91 83.2633C245.794 82.5438 247.689 81.7845 249.593 80.9863L249.206 80.0641L248.819 79.1419C246.935 79.932 245.06 80.6832 243.196 81.395L243.553 82.3291ZM254.794 77.6176L255.209 78.5274C257.043 77.6907 258.882 76.819 260.721 75.913L260.279 75.0159L259.837 74.1188C258.016 75.0161 256.195 75.8794 254.379 76.7078L254.794 77.6176ZM265.691 72.2508L266.159 73.1346C267.951 72.1863 269.74 71.206 271.525 70.1944L271.032 69.3244L270.539 68.4544C268.771 69.4565 266.998 70.4276 265.224 71.367L265.691 72.2508ZM276.286 66.2465L276.803 67.102C278.537 66.0527 280.263 64.974 281.979 63.8666L281.437 63.0263L280.895 62.1861C279.195 63.2831 277.485 64.3516 275.768 65.391L276.286 66.2465ZM286.501 59.6528L287.068 60.4769C288.744 59.3244 290.408 58.1442 292.057 56.937L291.467 56.1301L290.876 55.3233C289.243 56.5186 287.595 57.6873 285.935 58.8287L286.501 59.6528ZM296.316 52.4656L296.931 53.2541C298.537 52.0017 300.126 50.7231 301.694 49.4189L301.055 48.65L300.416 47.8811C298.864 49.1717 297.291 50.4372 295.702 51.677L296.316 52.4656ZM305.669 44.6858L306.333 45.4335C307.858 44.0792 309.361 42.6999 310.838 41.2961L310.149 40.5713L309.46 39.8464C307.999 41.2343 306.514 42.5984 305.005 43.938L305.669 44.6858ZM314.485 36.3034L315.199 37.0035C316.629 35.5455 318.031 34.0634 319.401 32.5577L318.662 31.8845L317.923 31.2113C316.569 32.6983 315.184 34.1625 313.771 35.6033L314.485 36.3034ZM322.669 27.3091L323.434 27.9531C324.752 26.3874 326.036 24.7983 327.283 23.1864L326.492 22.5744L325.702 21.9624C324.471 23.5522 323.205 25.12 321.904 26.6652L322.669 27.3091ZM330.109 17.687L330.926 18.2641C332.107 16.5932 333.247 14.8996 334.345 13.184L333.503 12.6449L332.661 12.1058C331.58 13.7951 330.456 15.4633 329.292 17.1099L330.109 17.687ZM336.66 7.44097L337.527 7.9385C338.035 7.05275 338.532 6.16157 339.016 5.26501L338.137 4.78955L337.257 4.31409C336.781 5.19564 336.292 6.07212 335.793 6.94345L336.66 7.44097Z" fill="#13AFB6"/>
<path d="M356.082 6.15564C356.085 6.08286 356.087 6.01008 356.089 5.9373C356.092 5.86452 356.094 5.79174 356.096 5.71896C356.062 5.25649 355.93 4.81522 355.724 4.39591C353.017 -0.861837 338.019 1.43416 322.184 9.48331C306.348 17.5325 295.663 28.2451 298.347 33.4778C299.883 36.5131 305.613 37.0093 313.238 35.331C316.017 29.809 320.374 25.2108 325.777 22.1755C331.078 19.307 337.302 18.7988 343.103 17.0631C347.207 15.8325 352.292 13.6371 354.685 10.337C355.503 9.07576 355.987 7.63396 356.082 6.15564Z" fill="url(#paint0_linear_2039_672)"/>
<path d="M356.099 5.69484L356.085 6.13152C355.99 7.60984 355.531 9.02814 354.712 10.2894C352.319 13.6138 347.234 15.8091 343.13 17.0155C337.331 18.727 331.106 19.2351 325.805 22.1279C321.939 24.2646 318.607 27.2437 316.012 30.8045C314.989 32.3508 314.065 33.8515 313.265 35.3076C309.444 42.2054 308.292 47.8758 310.799 50.2131C315.079 54.2334 328.405 47.0037 340.571 34.1036C350.699 23.3006 356.841 11.4978 356.099 5.69484Z" fill="url(#paint1_linear_2039_672)"/>
<defs>
<linearGradient id="paint0_linear_2039_672" x1="298.367" y1="18.0153" x2="355.657" y2="19.8198" gradientUnits="userSpaceOnUse">
<stop stop-color="#03659C"/>
<stop offset="1" stop-color="#06B2B8"/>
</linearGradient>
<linearGradient id="paint1_linear_2039_672" x1="310.646" y1="45.4358" x2="355.849" y2="12.0836" gradientUnits="userSpaceOnUse">
<stop stop-color="#06B2B8"/>
<stop offset="0.2" stop-color="#06ABB5"/>
<stop offset="0.49" stop-color="#0596AE"/>
<stop offset="0.85" stop-color="#0476A2"/>
<stop offset="1" stop-color="#03659C"/>
</linearGradient>
</defs>
</svg>
