<svg width="23" height="23" viewBox="0 0 23 23" fill="none" xmlns="http://www.w3.org/2000/svg">
<path fill-rule="evenodd" clip-rule="evenodd" d="M11.7093 8.89001C10.1494 8.89001 8.88988 10.1495 8.88988 11.7094C8.88988 12.2179 9.02331 12.6922 9.25879 13.1032L13.1031 9.25891C12.6921 9.02343 12.2177 8.89001 11.7093 8.89001ZM7.39551 11.7094C7.39551 9.32416 9.32404 7.39563 11.7093 7.39563C12.9026 7.39563 13.9768 7.87925 14.7581 8.66054C15.0499 8.95233 15.0499 9.42543 14.7581 9.71722L9.7171 14.7582C9.42531 15.05 8.95221 15.05 8.66042 14.7582C7.87912 13.977 7.39551 12.9027 7.39551 11.7094Z" fill="#505D65"/>
<path fill-rule="evenodd" clip-rule="evenodd" d="M2.00266 8.72736C4.38461 4.98309 7.87508 2.72299 11.7086 2.72299C13.9498 2.72299 16.0976 3.50366 17.9568 4.90601C18.2862 5.15451 18.3518 5.62303 18.1033 5.95248C17.8548 6.28193 17.3863 6.34755 17.0569 6.09905C15.4292 4.8713 13.5919 4.21737 11.7086 4.21737C8.50882 4.21737 5.4441 6.10148 3.26324 9.52991L3.26261 9.5309C2.90936 10.0843 2.70751 10.8765 2.70751 11.7142C2.70751 12.5518 2.90936 13.344 3.26261 13.8974C4.01356 15.0761 4.88343 16.0857 5.81983 16.891C6.1327 17.1601 6.16821 17.6319 5.89914 17.9447C5.63007 18.2576 5.15831 18.2931 4.84543 18.024C3.78933 17.1158 2.82576 15.9929 2.00263 14.7009C1.4595 13.8497 1.21313 12.7592 1.21313 11.7142C1.21313 10.669 1.45951 9.57857 2.00266 8.72736Z" fill="#505D65"/>
<path fill-rule="evenodd" clip-rule="evenodd" d="M19.2605 7.07234C19.582 6.81371 20.0524 6.86471 20.311 7.18626C20.6935 7.66173 21.0692 8.17266 21.4157 8.71869C21.9583 9.56973 22.2045 10.6597 22.2045 11.7043C22.2045 12.7494 21.9581 13.8399 21.415 14.6911C19.033 18.4354 15.5425 20.6955 11.709 20.6955C10.3775 20.6955 9.07372 20.4139 7.85245 19.8997C7.47213 19.7396 7.29363 19.3014 7.45377 18.9211C7.6139 18.5408 8.05203 18.3623 8.43235 18.5224C9.48253 18.9646 10.5897 19.2011 11.709 19.2011C14.9088 19.2011 17.9735 17.317 20.1544 13.8886L20.155 13.8876C20.5083 13.3341 20.7101 12.5419 20.7101 11.7043C20.7101 10.8667 20.5083 10.0745 20.155 9.52106L20.1539 9.51941C19.8429 9.02934 19.5013 8.56394 19.1466 8.12287C18.8879 7.80132 18.9389 7.33098 19.2605 7.07234Z" fill="#505D65"/>
<path fill-rule="evenodd" clip-rule="evenodd" d="M15.3421 11.6725C15.748 11.7474 16.0163 12.137 15.9414 12.5428C15.6262 14.2522 14.2421 15.6363 12.5327 15.9515C12.1269 16.0264 11.7373 15.7581 11.6624 15.3522C11.5876 14.9464 11.8559 14.5568 12.2617 14.4819C13.3617 14.2791 14.269 13.3718 14.4718 12.2718C14.5467 11.866 14.9363 11.5977 15.3421 11.6725Z" fill="#505D65"/>
<path fill-rule="evenodd" clip-rule="evenodd" d="M9.71752 13.7018C10.0093 13.9936 10.0089 14.4665 9.7171 14.7582L2.27553 22.2004C1.98373 22.4922 1.51064 22.4922 1.21885 22.2004C0.927051 21.9086 0.927051 21.4355 1.21885 21.1437L8.66084 13.7018C8.95263 13.41 9.42572 13.41 9.71752 13.7018Z" fill="#505D65"/>
<path fill-rule="evenodd" clip-rule="evenodd" d="M22.2002 1.21885C22.492 1.51064 22.492 1.98373 22.2002 2.27553L14.7581 9.71722C14.4663 10.009 13.9933 10.0093 13.7015 9.71752C13.4097 9.42572 13.4097 8.95263 13.7015 8.66084L21.1435 1.21885C21.4353 0.927051 21.9084 0.927051 22.2002 1.21885Z" fill="#505D65"/>
<path d="M14.7581 9.71722C15.0499 9.42543 15.0499 8.95233 14.7581 8.66054C13.9768 7.87925 12.9026 7.39563 11.7093 7.39563C9.32404 7.39563 7.39551 9.32416 7.39551 11.7094C7.39551 12.9027 7.87912 13.977 8.66042 14.7582C8.95221 15.05 9.42531 15.05 9.7171 14.7582M14.7581 9.71722L9.7171 14.7582M14.7581 9.71722L22.2002 2.27553C22.492 1.98373 22.492 1.51064 22.2002 1.21885C21.9084 0.927051 21.4353 0.927051 21.1435 1.21885L13.7015 8.66084C13.4097 8.95263 13.4097 9.42572 13.7015 9.71752C13.9933 10.0093 14.4663 10.009 14.7581 9.71722ZM9.7171 14.7582C10.0089 14.4665 10.0093 13.9936 9.71752 13.7018C9.42572 13.41 8.95263 13.41 8.66084 13.7018L1.21885 21.1437C0.927051 21.4355 0.927051 21.9086 1.21885 22.2004C1.51064 22.4922 1.98373 22.4922 2.27553 22.2004L9.7171 14.7582ZM8.88988 11.7094C8.88988 10.1495 10.1494 8.89001 11.7093 8.89001C12.2177 8.89001 12.6921 9.02343 13.1031 9.25891L9.25879 13.1032C9.02331 12.6922 8.88988 12.2179 8.88988 11.7094ZM11.7086 2.72299C7.87508 2.72299 4.38461 4.98309 2.00266 8.72736C1.45951 9.57857 1.21313 10.669 1.21313 11.7142C1.21313 12.7592 1.4595 13.8497 2.00263 14.7009C2.82576 15.9929 3.78933 17.1158 4.84543 18.024C5.15831 18.2931 5.63007 18.2576 5.89914 17.9447C6.16821 17.6319 6.1327 17.1601 5.81983 16.891C4.88343 16.0857 4.01356 15.0761 3.26261 13.8974C2.90936 13.344 2.70751 12.5518 2.70751 11.7142C2.70751 10.8765 2.90936 10.0843 3.26261 9.5309L3.26324 9.52991C5.4441 6.10148 8.50882 4.21737 11.7086 4.21737C13.5919 4.21737 15.4292 4.8713 17.0569 6.09905C17.3863 6.34755 17.8548 6.28193 18.1033 5.95248C18.3518 5.62303 18.2862 5.15451 17.9568 4.90601C16.0976 3.50366 13.9498 2.72299 11.7086 2.72299ZM20.311 7.18626C20.0524 6.86471 19.582 6.81371 19.2605 7.07234C18.9389 7.33098 18.8879 7.80132 19.1466 8.12287C19.5013 8.56394 19.8429 9.02934 20.1539 9.51941L20.155 9.52106C20.5083 10.0745 20.7101 10.8667 20.7101 11.7043C20.7101 12.5419 20.5083 13.3341 20.155 13.8876L20.1544 13.8886C17.9735 17.317 14.9088 19.2011 11.709 19.2011C10.5897 19.2011 9.48253 18.9646 8.43235 18.5224C8.05203 18.3623 7.6139 18.5408 7.45377 18.9211C7.29363 19.3014 7.47213 19.7396 7.85245 19.8997C9.07372 20.4139 10.3775 20.6955 11.709 20.6955C15.5425 20.6955 19.033 18.4354 21.415 14.6911C21.9581 13.8399 22.2045 12.7494 22.2045 11.7043C22.2045 10.6597 21.9583 9.56973 21.4157 8.71869C21.0692 8.17266 20.6935 7.66173 20.311 7.18626ZM15.9414 12.5428C16.0163 12.137 15.748 11.7474 15.3421 11.6725C14.9363 11.5977 14.5467 11.866 14.4718 12.2718C14.269 13.3718 13.3617 14.2791 12.2617 14.4819C11.8559 14.5568 11.5876 14.9464 11.6624 15.3522C11.7373 15.7581 12.1269 16.0264 12.5327 15.9515C14.2421 15.6363 15.6262 14.2522 15.9414 12.5428Z" stroke="#505D65" stroke-width="0.5" stroke-linecap="round" stroke-linejoin="round"/>
</svg>
