<svg width="76" height="76" viewBox="0 0 76 76" fill="none" xmlns="http://www.w3.org/2000/svg">
<g clip-path="url(#clip0_9_4602)">
<path d="M38 0C16.9991 0 0 16.9961 0 38C0 59.0039 16.9961 76 38 76C59.0039 76 76 59.0039 76 38C76 16.9961 59.0039 0 38 0ZM40.9688 69.9259V67.1932C40.9688 65.553 39.6402 64.2245 38 64.2245C36.3598 64.2245 35.0312 65.553 35.0312 67.1932V69.9259C19.6887 68.5262 7.47383 56.3098 6.07406 40.9688H8.8068C10.447 40.9688 11.7755 39.6402 11.7755 38C11.7755 36.3598 10.447 35.0312 8.8068 35.0312H6.07406C7.47383 19.6887 19.6902 7.47383 35.0312 6.07406V8.8068C35.0312 10.447 36.3598 11.7755 38 11.7755C39.6402 11.7755 40.9688 10.447 40.9688 8.8068V6.07406C56.3112 7.47383 68.5262 19.6902 69.9259 35.0312H67.1932C65.553 35.0312 64.2245 36.3598 64.2245 38C64.2245 39.6402 65.553 40.9688 67.1932 40.9688H69.9259C68.5262 56.3112 56.3098 68.5262 40.9688 69.9259ZM51.7765 47.5772C52.9358 48.7365 52.9358 50.6157 51.7765 51.775C50.6172 52.9343 48.738 52.9343 47.5787 51.775L35.9011 40.0974C35.3445 39.5408 35.0312 38.7852 35.0312 37.9985V20.4829C35.0312 18.8427 36.3598 17.5141 38 17.5141C39.6402 17.5141 40.9688 18.8427 40.9688 20.4829V36.7695L51.7765 47.5772Z" fill="white"/>
</g>
<defs>
<clipPath id="clip0_9_4602">
<rect width="76" height="76" fill="white"/>
</clipPath>
</defs>
</svg>
