<svg width="110" height="110" viewBox="0 0 110 110" fill="none" xmlns="http://www.w3.org/2000/svg">
<path fill-rule="evenodd" clip-rule="evenodd" d="M55 102.326C28.8628 102.326 7.67442 81.137 7.67442 55C7.67442 28.8628 28.8628 7.67442 55 7.67442C81.137 7.67442 102.326 28.8628 102.326 55C102.326 81.137 81.137 102.326 55 102.326ZM0 55C0 85.3759 24.6243 110 55 110C85.3759 110 110 85.3759 110 55C110 24.6243 85.3759 0 55 0C24.6243 0 0 24.6243 0 55Z" fill="#EA7878"/>
<path d="M33 39.1897L38.1897 34L76 71.8103L70.8103 77L33 39.1897Z" fill="#EA7878"/>
<path d="M76 39.1897L70.8103 34L33 71.8103L38.1897 77L76 39.1897Z" fill="#EA7878"/>
</svg>
