<svg width="24" height="27" viewBox="0 0 24 27" fill="none" xmlns="http://www.w3.org/2000/svg">
<path d="M21.3333 10.8H22.6667C23.0203 10.8 23.3594 10.9422 23.6095 11.1954C23.8595 11.4486 24 11.792 24 12.15V25.65C24 26.008 23.8595 26.3514 23.6095 26.6046C23.3594 26.8578 23.0203 27 22.6667 27H1.33333C0.979711 27 0.640573 26.8578 0.390524 26.6046C0.140476 26.3514 0 26.008 0 25.65V12.15C0 11.792 0.140476 11.4486 0.390524 11.1954C0.640573 10.9422 0.979711 10.8 1.33333 10.8H2.66667V9.45C2.66667 8.20901 2.90808 6.98017 3.37712 5.83364C3.84617 4.68711 4.53366 3.64535 5.40034 2.76784C6.26702 1.89033 7.29592 1.19425 8.42829 0.719338C9.56066 0.244431 10.7743 0 12 0C13.2257 0 14.4393 0.244431 15.5717 0.719338C16.7041 1.19425 17.733 1.89033 18.5997 2.76784C19.4663 3.64535 20.1538 4.68711 20.6229 5.83364C21.0919 6.98017 21.3333 8.20901 21.3333 9.45V10.8ZM2.66667 13.5V24.3H21.3333V13.5H2.66667ZM10.6667 16.2H13.3333V21.6H10.6667V16.2ZM18.6667 10.8V9.45C18.6667 7.65979 17.9643 5.9429 16.714 4.67703C15.4638 3.41116 13.7681 2.7 12 2.7C10.2319 2.7 8.5362 3.41116 7.28595 4.67703C6.03571 5.9429 5.33333 7.65979 5.33333 9.45V10.8H18.6667Z" fill="white"/>
</svg>
