<svg width="118" height="84" viewBox="0 0 118 84" fill="none" xmlns="http://www.w3.org/2000/svg">
<path d="M84.9431 47.901C82.8786 46.2137 80.5735 44.4673 78.1041 42.7578C80.5238 44.2736 82.8162 45.991 84.9431 47.901Z" fill="url(#paint0_linear_2022_609)"/>
<path d="M2.9818 29.4486L2.69235 28.782C2.48021 28.0559 2.40041 27.2982 2.46869 26.5452C3.38566 17.0009 27.3112 11.4867 55.9591 14.1964C84.6069 16.906 107.099 26.7325 106.198 36.2352C105.697 41.7494 97.392 45.9153 84.9151 47.9138C77.4173 41.2138 68.1013 36.8964 58.1525 35.515C48.4398 34.3411 38.7792 37.3043 29.0261 38.1546C22.1114 38.7542 13.1501 38.4598 7.54787 34.8983C5.58031 33.5134 4.00649 31.6304 2.9818 29.4486Z" fill="url(#paint1_linear_2022_609)"/>
<path d="M2.97459 29.4524C3.99519 31.6446 5.57215 33.5349 7.55323 34.9311C13.1681 38.5216 22.1168 38.7871 29.0314 38.1874C38.7792 37.305 48.4399 34.3418 58.1525 35.5157C65.2466 36.4573 72.051 38.9284 78.0979 42.762C80.5601 44.4746 82.8629 46.1961 84.9368 47.9051C94.8166 56.034 99.949 63.9161 97.5938 68.9607C93.5679 77.5985 69.178 74.6418 43.1243 62.3917C21.3567 52.1559 5.32426 38.6634 2.97459 29.4524Z" fill="url(#paint2_linear_2022_609)"/>
<defs>
<linearGradient id="paint0_linear_2022_609" x1="83.458" y1="44.4808" x2="79.5756" y2="46.1666" gradientUnits="userSpaceOnUse">
<stop stop-color="white"/>
<stop offset="1"/>
</linearGradient>
<linearGradient id="paint1_linear_2022_609" x1="96.8945" y1="12.8883" x2="11.8292" y2="49.8244" gradientUnits="userSpaceOnUse">
<stop stop-color="#03659C"/>
<stop offset="1" stop-color="#06B2B8"/>
</linearGradient>
<linearGradient id="paint2_linear_2022_609" x1="94.9194" y1="61.6734" x2="7.17785" y2="38.7864" gradientUnits="userSpaceOnUse">
<stop stop-color="#06B2B8"/>
<stop offset="0.2" stop-color="#06ABB5"/>
<stop offset="0.49" stop-color="#0596AE"/>
<stop offset="0.85" stop-color="#0476A2"/>
<stop offset="1" stop-color="#03659C"/>
</linearGradient>
</defs>
</svg>
