<svg width="84" height="81" viewBox="0 0 84 81" fill="none" xmlns="http://www.w3.org/2000/svg">
<g clip-path="url(#clip0_9_4591)">
<path d="M20.2565 29.8353C18.8964 29.8353 17.7939 30.9389 17.7939 32.3004C17.7939 33.6619 18.8964 34.7655 20.2565 34.7655C23.4639 34.7655 26.0725 37.3193 26.0725 40.4594C26.0725 43.5995 23.4639 46.1532 20.2565 46.1532C18.8964 46.1532 17.7939 47.2569 17.7939 48.6183C17.7939 49.9798 18.8964 51.0834 20.2565 51.0834C26.1792 51.0834 30.9993 46.3175 30.9993 40.4577C30.9993 34.598 26.1808 29.832 20.2565 29.832V29.8353Z" fill="white"/>
<path d="M84 41.7769C84 36.1487 80.3857 31.3532 75.2784 29.5844C75.9002 28.0587 76.2284 26.4181 76.2284 24.7561C76.2284 18.4825 71.6789 13.2386 65.666 12.0726C65.2214 5.34077 59.5399 0 52.6214 0C48.2491 0 44.3756 2.13335 42 5.40153C39.626 2.13335 35.7509 0 31.3786 0C24.4601 0 18.7786 5.34077 18.334 12.0726C12.3211 13.2386 7.77164 18.4825 7.77164 24.7561C7.77164 26.4181 8.09977 28.0587 8.72156 29.5844C3.6143 31.3532 0 36.1487 0 41.7769C0 47.075 3.25172 51.7046 7.97836 53.6803C7.27781 55.2865 6.90703 57.0306 6.90703 58.7994C6.90703 62.258 8.31305 65.518 10.8659 67.9782C12.8953 69.9342 15.4399 71.1823 18.1765 71.5913C18.9049 73.9562 20.2962 76.0912 22.2075 77.7384C24.652 79.8438 27.784 81.0033 31.0291 81.0033C35.5556 81.0033 39.5637 78.7763 41.9984 75.3768C44.433 78.778 48.4411 81.0033 52.9676 81.0033C56.2127 81.0033 59.3463 79.8438 61.7892 77.7384C63.7005 76.0912 65.0934 73.9562 65.8202 71.5913C68.5568 71.1823 71.1014 69.9358 73.1309 67.9782C75.6837 65.518 77.0897 62.2597 77.0897 58.7994C77.0897 57.029 76.7189 55.2865 76.0184 53.6803C80.745 51.7046 83.9984 47.075 83.9984 41.7769H84ZM31.0308 76.0698C26.8242 76.0698 23.2034 72.9954 22.6095 68.9176C22.552 68.5267 22.5241 68.1244 22.5241 67.7253C22.5241 63.1235 26.3402 59.3791 31.0308 59.3791C32.3909 59.3791 33.4934 58.2755 33.4934 56.914C33.4934 55.5525 32.3909 54.4489 31.0308 54.4489C24.0696 54.4489 18.3291 59.7108 17.663 66.4213C14.3243 65.3702 11.8338 62.3073 11.8338 58.801C11.8338 56.9321 12.4704 55.1814 13.6763 53.7394C14.257 53.0447 14.4096 52.0889 14.0766 51.2481C13.7435 50.4072 12.9757 49.816 12.0783 49.7092C8.00133 49.2231 4.92516 45.8153 4.92516 41.7802C4.92516 37.4938 8.34258 33.9875 12.7034 33.7986C13.6369 33.7575 14.4654 33.1926 14.846 32.3402C15.2266 31.4862 15.0921 30.491 14.4982 29.77C13.3186 28.3363 12.6968 26.6037 12.6968 24.7594C12.6968 20.987 15.3792 17.819 18.9738 16.9831C20.6801 21.9707 25.4723 25.4967 30.9717 25.4967C32.3318 25.4967 33.4343 24.3931 33.4343 23.0317C33.4343 21.6702 32.3318 20.5666 30.9717 20.5666C27.0998 20.5666 23.8022 17.7319 23.3018 13.9744C23.2559 13.6295 23.2329 13.278 23.2329 12.9266C23.2329 8.52027 26.8882 4.93512 31.3786 4.93512C35.9789 4.93019 39.6326 8.67464 39.5374 13.1713V67.6694C39.5374 67.6875 39.5341 67.7056 39.5341 67.7236C39.5341 67.7417 39.5341 67.7581 39.5341 67.7762C39.5046 72.3549 35.7016 76.0698 31.0291 76.0698H31.0308ZM71.9201 49.7059C71.0227 49.8127 70.2548 50.4039 69.9218 51.2448C69.5888 52.0856 69.7413 53.0431 70.3221 53.7361C71.528 55.1781 72.1645 56.9288 72.1645 58.7977C72.1645 62.3024 69.6741 65.3669 66.3354 66.418C65.6693 59.7076 59.9288 54.4456 52.9676 54.4456C51.6075 54.4456 50.505 55.5492 50.505 56.9107C50.505 58.2722 51.6075 59.3758 52.9676 59.3758C57.6581 59.3758 61.4742 63.1203 61.4742 67.722C61.4742 68.1211 61.4447 68.5234 61.3889 68.9143C60.795 72.9921 57.1758 76.0665 52.9676 76.0665C48.2951 76.0665 44.4905 72.35 44.4626 67.7729C44.4626 67.7548 44.4626 67.7384 44.4626 67.7203V13.1121C44.3871 8.63523 48.0441 4.92691 52.6181 4.93183C57.1102 4.93183 60.7638 8.51698 60.7638 12.9233C60.7638 13.2731 60.7409 13.6262 60.6949 13.9711C60.1945 17.7287 56.8969 20.5633 53.025 20.5633C51.6649 20.5633 50.5624 21.6669 50.5624 23.0284C50.5624 24.3898 51.6649 25.4935 53.025 25.4935C58.5244 25.4935 63.3166 21.9674 65.0229 16.9798C68.6175 17.8157 71.2999 20.9837 71.2999 24.7561C71.2999 26.5987 70.6765 28.3314 69.4985 29.7667C68.9046 30.4877 68.7701 31.4846 69.1507 32.3369C69.5313 33.1909 70.3615 33.7559 71.2934 33.7953C75.6558 33.9842 79.0716 37.4905 79.0716 41.7769C79.0716 45.812 75.997 49.2215 71.9184 49.7059H71.9201Z" fill="white"/>
<path d="M63.7428 34.7661C65.1029 34.7661 66.2054 33.6625 66.2054 32.301C66.2054 30.9396 65.1029 29.8359 63.7428 29.8359C57.8202 29.8359 53 34.6019 53 40.4616C53 46.3214 57.8185 51.0873 63.7428 51.0873C65.1029 51.0873 66.2054 49.9837 66.2054 48.6222C66.2054 47.2608 65.1029 46.1571 63.7428 46.1571C60.5354 46.1571 57.9268 43.6034 57.9268 40.4633C57.9268 37.3232 60.5354 34.7694 63.7428 34.7694V34.7661Z" fill="white"/>
</g>
<defs>
<clipPath id="clip0_9_4591">
<rect width="84" height="81" fill="white"/>
</clipPath>
</defs>
</svg>
