<svg width="76" height="76" viewBox="0 0 76 76" fill="none" xmlns="http://www.w3.org/2000/svg">
<g clip-path="url(#clip0_9_4600)">
<path fill-rule="evenodd" clip-rule="evenodd" d="M76 7.6C76 3.42 72.58 0 68.4 0C64.22 0 60.8 3.42 60.8 7.6C60.8 9.006 61.18 10.336 61.864 11.476L53.276 20.064L44.916 10.792C45.372 9.842 45.6 8.74 45.6 7.6C45.6 3.42 42.18 0 38 0C33.82 0 30.4 3.42 30.4 7.6C30.4 7.942 30.4 8.322 30.476 8.664L13.642 18.202C12.236 16.378 10.07 15.2 7.6 15.2C3.42 15.2 0 18.62 0 22.8C0 26.98 3.42 30.4 7.6 30.4C10.07 30.4 12.274 29.222 13.642 27.398L30.476 36.936C30.438 37.278 30.4 37.62 30.4 38C30.4 38.38 30.4 38.722 30.476 39.064L13.642 48.602C13.642 48.602 13.376 48.298 13.262 48.108L21.014 36.442L17.86 34.352L10.108 46.018C9.31 45.752 8.474 45.6 7.6 45.6C3.42 45.6 0 49.02 0 53.2C0 57.38 3.42 60.8 7.6 60.8C10.07 60.8 12.274 59.622 13.642 57.798L30.476 67.336C30.438 67.678 30.4 68.02 30.4 68.4C30.4 72.58 33.82 76 38 76C42.18 76 45.6 72.58 45.6 68.4C45.6 67.26 45.334 66.196 44.916 65.208L53.276 55.936L61.864 64.524C61.18 65.664 60.8 66.994 60.8 68.4C60.8 72.58 64.22 76 68.4 76C72.58 76 76 72.58 76 68.4C76 64.22 72.58 60.8 68.4 60.8C66.994 60.8 65.664 61.18 64.524 61.864L55.822 53.162L63.954 44.194C65.208 45.106 66.766 45.638 68.438 45.638C72.618 45.638 76.038 42.218 76.038 38.038C76.038 33.858 72.618 30.438 68.438 30.438C66.766 30.438 65.208 30.97 63.954 31.882L55.822 22.914L64.524 14.212C65.664 14.896 66.994 15.276 68.4 15.276C72.58 15.276 76 11.856 76 7.676V7.6ZM53.124 25.574L61.484 34.846C61.028 35.796 60.8 36.898 60.8 38.038C60.8 39.178 61.066 40.242 61.484 41.23L53.124 50.502L44.536 41.914C45.22 40.774 45.6 39.444 45.6 38.038C45.6 36.632 45.22 35.302 44.536 34.162L53.124 25.574ZM41.838 31.464C40.698 30.78 39.368 30.4 37.962 30.4C35.492 30.4 33.288 31.578 31.92 33.402L15.124 23.864C15.162 23.522 15.2 23.18 15.2 22.8C15.2 22.42 15.2 22.078 15.124 21.736L31.958 12.198C31.958 12.198 32.224 12.502 32.338 12.692L24.32 24.738L27.474 26.828L35.492 14.782C36.29 15.048 37.126 15.2 38 15.2C39.672 15.2 41.23 14.668 42.484 13.756L50.616 22.724L41.914 31.426L41.838 31.464ZM41.838 44.574L50.54 53.276L42.408 62.244C41.154 61.332 39.596 60.8 37.924 60.8C35.454 60.8 33.25 61.978 31.882 63.802L15.048 54.264C15.086 53.922 15.124 53.58 15.124 53.2C15.124 52.82 15.124 52.478 15.048 52.136L31.882 42.598C33.25 44.422 35.454 45.6 37.924 45.6C39.33 45.6 40.66 45.22 41.8 44.536L41.838 44.574ZM68.4 3.8C70.49 3.8 72.2 5.51 72.2 7.6C72.2 9.69 70.49 11.4 68.4 11.4C67.336 11.4 66.386 10.982 65.702 10.298C65.018 9.614 64.6 8.664 64.6 7.6C64.6 5.51 66.31 3.8 68.4 3.8ZM38 3.8C40.09 3.8 41.8 5.51 41.8 7.6C41.8 8.474 41.534 9.234 41.04 9.88C40.356 10.792 39.254 11.4 38 11.4C37.202 11.4 36.48 11.172 35.91 10.754C35.264 10.298 34.732 9.69 34.466 8.93C34.314 8.512 34.238 8.056 34.238 7.6C34.238 5.51 35.948 3.8 38.038 3.8H38ZM7.6 19C9.234 19 10.602 20.026 11.172 21.47C11.324 21.888 11.4 22.344 11.4 22.8C11.4 23.256 11.324 23.712 11.172 24.13C10.64 25.574 9.234 26.6 7.6 26.6C5.51 26.6 3.8 24.89 3.8 22.8C3.8 20.71 5.51 19 7.6 19ZM68.4 34.2C70.49 34.2 72.2 35.91 72.2 38C72.2 40.09 70.49 41.8 68.4 41.8C67.146 41.8 66.044 41.192 65.36 40.28C64.866 39.634 64.6 38.874 64.6 38C64.6 37.126 64.866 36.366 65.36 35.72C66.044 34.808 67.146 34.2 68.4 34.2ZM38 34.2C39.064 34.2 40.014 34.618 40.698 35.302C41.382 35.986 41.8 36.936 41.8 38C41.8 39.064 41.382 40.014 40.698 40.698C40.014 41.382 39.064 41.8 38 41.8C36.366 41.8 34.998 40.774 34.428 39.33C34.276 38.912 34.2 38.456 34.2 38C34.2 37.544 34.276 37.088 34.428 36.67C34.96 35.226 36.366 34.2 38 34.2ZM7.6 49.4C8.398 49.4 9.12 49.628 9.69 50.046C10.336 50.502 10.868 51.11 11.134 51.87C11.286 52.288 11.362 52.744 11.362 53.2C11.362 53.656 11.286 54.112 11.134 54.53C10.602 55.974 9.196 57 7.562 57C5.472 57 3.762 55.29 3.762 53.2C3.762 51.11 5.472 49.4 7.562 49.4H7.6ZM68.4 64.6C70.49 64.6 72.2 66.31 72.2 68.4C72.2 70.49 70.49 72.2 68.4 72.2C66.31 72.2 64.6 70.49 64.6 68.4C64.6 67.336 65.018 66.386 65.702 65.702C66.386 65.018 67.336 64.6 68.4 64.6ZM38 64.6C39.254 64.6 40.356 65.208 41.04 66.12C41.534 66.766 41.8 67.526 41.8 68.4C41.8 70.49 40.09 72.2 38 72.2C35.91 72.2 34.2 70.49 34.2 68.4C34.2 67.944 34.276 67.488 34.428 67.07C34.96 65.626 36.366 64.6 38 64.6Z" fill="white"/>
</g>
<defs>
<clipPath id="clip0_9_4600">
<rect width="76" height="76" fill="white"/>
</clipPath>
</defs>
</svg>
