<svg width="110" height="110" viewBox="0 0 110 110" fill="none" xmlns="http://www.w3.org/2000/svg">
<path fill-rule="evenodd" clip-rule="evenodd" d="M55 102.326C28.8628 102.326 7.67442 81.137 7.67442 55C7.67442 28.8628 28.8628 7.67442 55 7.67442C81.137 7.67442 102.326 28.8628 102.326 55C102.326 81.137 81.137 102.326 55 102.326ZM0 55C0 85.3759 24.6243 110 55 110C85.3759 110 110 85.3759 110 55C110 24.6243 85.3759 0 55 0C24.6243 0 0 24.6243 0 55Z" fill="url(#paint0_linear_119_961)"/>
<path fill-rule="evenodd" clip-rule="evenodd" d="M47.2048 64.8018L72.6363 37.0583L78.2939 42.244L47.4463 75.8959L31.8216 60.2713L37.2482 54.845L47.2048 64.8018Z" fill="url(#paint1_linear_119_961)"/>
<defs>
<linearGradient id="paint0_linear_119_961" x1="0" y1="0" x2="120.135" y2="12.4868" gradientUnits="userSpaceOnUse">
<stop stop-color="#F1F1F2"/>
<stop offset="1" stop-color="#EAFBFB"/>
</linearGradient>
<linearGradient id="paint1_linear_119_961" x1="0" y1="0" x2="120.135" y2="12.4868" gradientUnits="userSpaceOnUse">
<stop stop-color="#F1F1F2"/>
<stop offset="1" stop-color="#EAFBFB"/>
</linearGradient>
</defs>
</svg>
